G04 #@! TF.FileFunction,Copper,L2,Bot,Signal*
%FSLAX46Y46*%
G04 Gerber Fmt 4.6, Leading zero omitted, Abs format (unit mm)*
G04 Created by KiCad (PCBNEW 4.0.2-stable) date 18/09/2016 18:07:30*
%MOMM*%
G01*
G04 APERTURE LIST*
%ADD10C,0.150000*%
%ADD11C,0.050000*%
%ADD12C,0.002540*%
%ADD13C,1.506220*%
%ADD14C,3.500000*%
%ADD15R,1.800000X1.800000*%
%ADD16C,1.800000*%
%ADD17O,1.524000X2.540000*%
%ADD18C,3.937000*%
%ADD19O,1.542000X2.540000*%
%ADD20C,0.889000*%
%ADD21C,0.254000*%
G04 APERTURE END LIST*
D10*
D11*
X218220669Y-75596333D02*
X218220669Y-75246333D01*
X218104002Y-75363000D02*
X217970668Y-75363000D01*
X218054002Y-75246333D02*
X218054002Y-75546333D01*
X218037335Y-75579667D01*
X218004002Y-75596333D01*
X217970668Y-75596333D01*
X217437335Y-75579667D02*
X217470668Y-75596333D01*
X217537335Y-75596333D01*
X217570668Y-75579667D01*
X217587335Y-75563000D01*
X217604001Y-75529667D01*
X217604001Y-75429667D01*
X217587335Y-75396333D01*
X217570668Y-75379667D01*
X217537335Y-75363000D01*
X217470668Y-75363000D01*
X217437335Y-75379667D01*
X217137335Y-75596333D02*
X217137335Y-75413000D01*
X217154001Y-75379667D01*
X217187335Y-75363000D01*
X217254001Y-75363000D01*
X217287335Y-75379667D01*
X217137335Y-75579667D02*
X217170668Y-75596333D01*
X217254001Y-75596333D01*
X217287335Y-75579667D01*
X217304001Y-75546333D01*
X217304001Y-75513000D01*
X217287335Y-75479667D01*
X217254001Y-75463000D01*
X217170668Y-75463000D01*
X217137335Y-75446333D01*
X216970668Y-75363000D02*
X216970668Y-75596333D01*
X216970668Y-75396333D02*
X216954001Y-75379667D01*
X216920668Y-75363000D01*
X216870668Y-75363000D01*
X216837334Y-75379667D01*
X216820668Y-75413000D01*
X216820668Y-75596333D01*
X216387334Y-75596333D02*
X216387334Y-75246333D01*
X216387334Y-75379667D02*
X216354000Y-75363000D01*
X216287334Y-75363000D01*
X216254000Y-75379667D01*
X216237334Y-75396333D01*
X216220667Y-75429667D01*
X216220667Y-75529667D01*
X216237334Y-75563000D01*
X216254000Y-75579667D01*
X216287334Y-75596333D01*
X216354000Y-75596333D01*
X216387334Y-75579667D01*
X215937333Y-75579667D02*
X215970667Y-75596333D01*
X216037333Y-75596333D01*
X216070667Y-75579667D01*
X216087333Y-75546333D01*
X216087333Y-75413000D01*
X216070667Y-75379667D01*
X216037333Y-75363000D01*
X215970667Y-75363000D01*
X215937333Y-75379667D01*
X215920667Y-75413000D01*
X215920667Y-75446333D01*
X216087333Y-75479667D01*
X215354000Y-75596333D02*
X215354000Y-75246333D01*
X215354000Y-75579667D02*
X215387333Y-75596333D01*
X215454000Y-75596333D01*
X215487333Y-75579667D01*
X215504000Y-75563000D01*
X215520666Y-75529667D01*
X215520666Y-75429667D01*
X215504000Y-75396333D01*
X215487333Y-75379667D01*
X215454000Y-75363000D01*
X215387333Y-75363000D01*
X215354000Y-75379667D01*
X215137333Y-75596333D02*
X215170666Y-75579667D01*
X215187333Y-75563000D01*
X215203999Y-75529667D01*
X215203999Y-75429667D01*
X215187333Y-75396333D01*
X215170666Y-75379667D01*
X215137333Y-75363000D01*
X215087333Y-75363000D01*
X215053999Y-75379667D01*
X215037333Y-75396333D01*
X215020666Y-75429667D01*
X215020666Y-75529667D01*
X215037333Y-75563000D01*
X215053999Y-75579667D01*
X215087333Y-75596333D01*
X215137333Y-75596333D01*
X214870666Y-75363000D02*
X214870666Y-75596333D01*
X214870666Y-75396333D02*
X214853999Y-75379667D01*
X214820666Y-75363000D01*
X214770666Y-75363000D01*
X214737332Y-75379667D01*
X214720666Y-75413000D01*
X214720666Y-75596333D01*
X214420665Y-75579667D02*
X214453999Y-75596333D01*
X214520665Y-75596333D01*
X214553999Y-75579667D01*
X214570665Y-75546333D01*
X214570665Y-75413000D01*
X214553999Y-75379667D01*
X214520665Y-75363000D01*
X214453999Y-75363000D01*
X214420665Y-75379667D01*
X214403999Y-75413000D01*
X214403999Y-75446333D01*
X214570665Y-75479667D01*
X214253999Y-75563000D02*
X214237332Y-75579667D01*
X214253999Y-75596333D01*
X214270665Y-75579667D01*
X214253999Y-75563000D01*
X214253999Y-75596333D01*
X214253999Y-75463000D02*
X214270665Y-75263000D01*
X214253999Y-75246333D01*
X214237332Y-75263000D01*
X214253999Y-75463000D01*
X214253999Y-75246333D01*
X214087332Y-75563000D02*
X214070665Y-75579667D01*
X214087332Y-75596333D01*
X214103998Y-75579667D01*
X214087332Y-75563000D01*
X214087332Y-75596333D01*
X214087332Y-75463000D02*
X214103998Y-75263000D01*
X214087332Y-75246333D01*
X214070665Y-75263000D01*
X214087332Y-75463000D01*
X214087332Y-75246333D01*
D12*
G36*
X214188040Y-72524620D02*
X214203280Y-72824340D01*
X214276940Y-73032620D01*
X214276940Y-72722740D01*
X214284560Y-72450960D01*
X214370920Y-72212200D01*
X214439500Y-72123300D01*
X214632540Y-71975980D01*
X214894160Y-71869300D01*
X215188800Y-71810880D01*
X215480900Y-71803260D01*
X215729820Y-71859140D01*
X215778080Y-71882000D01*
X216004140Y-72047100D01*
X216197180Y-72275700D01*
X216336880Y-72537320D01*
X216400380Y-72791320D01*
X216400380Y-72829420D01*
X216352120Y-73060560D01*
X216220040Y-73294240D01*
X216027000Y-73502520D01*
X215915240Y-73583800D01*
X215607900Y-73715880D01*
X215287860Y-73741280D01*
X214957660Y-73657460D01*
X214924640Y-73642220D01*
X214675720Y-73479660D01*
X214480140Y-73256140D01*
X214345520Y-72997060D01*
X214276940Y-72722740D01*
X214276940Y-73032620D01*
X214309960Y-73129140D01*
X214510620Y-73428860D01*
X214523320Y-73439020D01*
X214680800Y-73596500D01*
X214850980Y-73705720D01*
X215071960Y-73784460D01*
X215242140Y-73825100D01*
X215374220Y-73901300D01*
X215432640Y-74056240D01*
X215409780Y-74277220D01*
X215369140Y-74414380D01*
X215310720Y-74625200D01*
X215305640Y-74797920D01*
X215310720Y-74820780D01*
X215356440Y-74927460D01*
X215369140Y-74932540D01*
X215369140Y-74703940D01*
X215384380Y-74615040D01*
X215427560Y-74521060D01*
X215473280Y-74424540D01*
X215491060Y-74414380D01*
X215485980Y-74432160D01*
X215485980Y-74528680D01*
X215524080Y-74627740D01*
X215574880Y-74696320D01*
X215625680Y-74703940D01*
X215640920Y-74681080D01*
X215663780Y-74653140D01*
X215673940Y-74703940D01*
X215635840Y-74782680D01*
X215534240Y-74800460D01*
X215412320Y-74754740D01*
X215369140Y-74703940D01*
X215369140Y-74932540D01*
X215450420Y-74965560D01*
X215529160Y-74970640D01*
X215567260Y-74973180D01*
X215567260Y-74886820D01*
X215595200Y-74858880D01*
X215623140Y-74886820D01*
X215595200Y-74912220D01*
X215567260Y-74886820D01*
X215567260Y-74973180D01*
X215671400Y-74983340D01*
X215762840Y-75018900D01*
X215765380Y-75018900D01*
X215821260Y-75044300D01*
X215821260Y-74787760D01*
X215833960Y-74615040D01*
X215866980Y-74526140D01*
X215935560Y-74490580D01*
X216024460Y-74480420D01*
X216161620Y-74460100D01*
X216225120Y-74437240D01*
X216197180Y-74419460D01*
X216108280Y-74414380D01*
X215988900Y-74399140D01*
X215935560Y-74371200D01*
X215966040Y-74343260D01*
X216075260Y-74330560D01*
X216093040Y-74330560D01*
X216227660Y-74355960D01*
X216265760Y-74416920D01*
X216214960Y-74480420D01*
X216090500Y-74526140D01*
X215986360Y-74559160D01*
X215993980Y-74597260D01*
X215999060Y-74597260D01*
X216105740Y-74620120D01*
X216179400Y-74607420D01*
X216258140Y-74587100D01*
X216283540Y-74609960D01*
X216260680Y-74701400D01*
X216232740Y-74787760D01*
X216179400Y-74899520D01*
X216103200Y-74932540D01*
X215993980Y-74917300D01*
X215856820Y-74861420D01*
X215821260Y-74787760D01*
X215821260Y-75044300D01*
X215849200Y-75054460D01*
X216006680Y-75084940D01*
X216202260Y-75107800D01*
X216400380Y-75117960D01*
X216570560Y-75115420D01*
X216682320Y-75100180D01*
X216702640Y-75087480D01*
X216684860Y-75041760D01*
X216560400Y-75023980D01*
X216547700Y-75023980D01*
X216390220Y-75006200D01*
X216319100Y-74960480D01*
X216344500Y-74896980D01*
X216395300Y-74861420D01*
X216560400Y-74805540D01*
X216682320Y-74851260D01*
X216745820Y-74947780D01*
X216794080Y-75029060D01*
X216852500Y-75069700D01*
X216900760Y-75072240D01*
X216900760Y-74942700D01*
X216928700Y-74912220D01*
X216956640Y-74942700D01*
X216928700Y-74970640D01*
X216900760Y-74942700D01*
X216900760Y-75072240D01*
X216961720Y-75074780D01*
X217124280Y-75062080D01*
X217370660Y-75029060D01*
X217525600Y-74990960D01*
X217604340Y-74937620D01*
X217622120Y-74871580D01*
X217665300Y-74769980D01*
X217713560Y-74721720D01*
X217759280Y-74640440D01*
X217774520Y-74526140D01*
X217754200Y-74414380D01*
X217711020Y-74340720D01*
X217660220Y-74338180D01*
X217647520Y-74333100D01*
X217703400Y-74272140D01*
X217705940Y-74269600D01*
X217822780Y-74157840D01*
X217893900Y-74079100D01*
X217949780Y-74025760D01*
X217947240Y-74063860D01*
X217939620Y-74089260D01*
X217942160Y-74162920D01*
X218015820Y-74175620D01*
X218094560Y-74142600D01*
X218089480Y-74063860D01*
X218010740Y-73906380D01*
X217896440Y-73797160D01*
X217777060Y-73746360D01*
X217675460Y-73774300D01*
X217647520Y-73807320D01*
X217584020Y-73822560D01*
X217507820Y-73769220D01*
X217426540Y-73710800D01*
X217406220Y-73731120D01*
X217444320Y-73840340D01*
X217484960Y-73929240D01*
X217535760Y-74041000D01*
X217538300Y-74061320D01*
X217490040Y-73997820D01*
X217477340Y-73982580D01*
X217383360Y-73878440D01*
X217332560Y-73868280D01*
X217342720Y-73949560D01*
X217380820Y-74038460D01*
X217459560Y-74213720D01*
X217512900Y-74383900D01*
X217512900Y-74386440D01*
X217556080Y-74498200D01*
X217611960Y-74538840D01*
X217614500Y-74538840D01*
X217632280Y-74543920D01*
X217632280Y-74096880D01*
X217632280Y-74010520D01*
X217685620Y-73903840D01*
X217749120Y-73868280D01*
X217827860Y-73888600D01*
X217840560Y-73964800D01*
X217782140Y-74063860D01*
X217779600Y-74068940D01*
X217683080Y-74132440D01*
X217632280Y-74096880D01*
X217632280Y-74543920D01*
X217672920Y-74554080D01*
X217652600Y-74637900D01*
X217568780Y-74759820D01*
X217436700Y-74869040D01*
X217271600Y-74932540D01*
X217109040Y-74937620D01*
X216992200Y-74884280D01*
X216979500Y-74869040D01*
X216938860Y-74780140D01*
X216971880Y-74736960D01*
X216979500Y-74691240D01*
X216890600Y-74632820D01*
X216771220Y-74538840D01*
X216669620Y-74394060D01*
X216656920Y-74366120D01*
X216595960Y-74129900D01*
X216636600Y-73929240D01*
X216773760Y-73774300D01*
X216837260Y-73738740D01*
X216946480Y-73662540D01*
X216959180Y-73611740D01*
X216885520Y-73604120D01*
X216771220Y-73642220D01*
X216664540Y-73723500D01*
X216565480Y-73847960D01*
X216499440Y-73977500D01*
X216486740Y-74079100D01*
X216491820Y-74091800D01*
X216476580Y-74132440D01*
X216458800Y-74137520D01*
X216418160Y-74086720D01*
X216402920Y-73969880D01*
X216400380Y-73967340D01*
X216385140Y-73855580D01*
X216347040Y-73830180D01*
X216344500Y-73830180D01*
X216306400Y-73903840D01*
X216291160Y-74038460D01*
X216291160Y-74051160D01*
X216253060Y-74206100D01*
X216164160Y-74287380D01*
X216052400Y-74292460D01*
X215950800Y-74223880D01*
X215887300Y-74074020D01*
X215884760Y-74063860D01*
X215887300Y-73863200D01*
X215976200Y-73690480D01*
X216120980Y-73545700D01*
X216237820Y-73416160D01*
X216347040Y-73238360D01*
X216372440Y-73182480D01*
X216438480Y-73035160D01*
X216471500Y-72964040D01*
X216471500Y-72613520D01*
X216529920Y-72595740D01*
X216583260Y-72610980D01*
X216644220Y-72679560D01*
X216641680Y-72722740D01*
X216580720Y-72796400D01*
X216517220Y-72765920D01*
X216489280Y-72712580D01*
X216471500Y-72613520D01*
X216471500Y-72964040D01*
X216484200Y-72938640D01*
X216494360Y-72920860D01*
X216550240Y-72928480D01*
X216664540Y-73002140D01*
X216789000Y-73103740D01*
X216789000Y-72664320D01*
X216816940Y-72636380D01*
X216844880Y-72664320D01*
X216816940Y-72692260D01*
X216789000Y-72664320D01*
X216789000Y-73103740D01*
X216816940Y-73129140D01*
X216987120Y-73289160D01*
X217060780Y-73362820D01*
X217228420Y-73527920D01*
X217337640Y-73616820D01*
X217383360Y-73626980D01*
X217360500Y-73555860D01*
X217352880Y-73538080D01*
X217337640Y-73411080D01*
X217378280Y-73332340D01*
X217439240Y-73233280D01*
X217457020Y-73182480D01*
X217418920Y-73098660D01*
X217322400Y-72984360D01*
X217203020Y-72870060D01*
X217091260Y-72786240D01*
X217020140Y-72760840D01*
X216943940Y-72732900D01*
X216931240Y-72692260D01*
X216877900Y-72621140D01*
X216735660Y-72552560D01*
X216664540Y-72527160D01*
X216512140Y-72471280D01*
X216415620Y-72412860D01*
X216400380Y-72387460D01*
X216357200Y-72283320D01*
X216250520Y-72143620D01*
X216100660Y-71991220D01*
X215933020Y-71854060D01*
X215775540Y-71752460D01*
X215747600Y-71739760D01*
X215597740Y-71671180D01*
X215531700Y-71612760D01*
X215521540Y-71526400D01*
X215536780Y-71440040D01*
X215552020Y-71307960D01*
X215524080Y-71252080D01*
X215485980Y-71247000D01*
X215432640Y-71267320D01*
X215419940Y-71351140D01*
X215435180Y-71467980D01*
X215470740Y-71691500D01*
X215224360Y-71691500D01*
X214965280Y-71729600D01*
X214693500Y-71833740D01*
X214434420Y-72014080D01*
X214266780Y-72252840D01*
X214188040Y-72524620D01*
X214188040Y-72524620D01*
X214188040Y-72524620D01*
G37*
X214188040Y-72524620D02*
X214203280Y-72824340D01*
X214276940Y-73032620D01*
X214276940Y-72722740D01*
X214284560Y-72450960D01*
X214370920Y-72212200D01*
X214439500Y-72123300D01*
X214632540Y-71975980D01*
X214894160Y-71869300D01*
X215188800Y-71810880D01*
X215480900Y-71803260D01*
X215729820Y-71859140D01*
X215778080Y-71882000D01*
X216004140Y-72047100D01*
X216197180Y-72275700D01*
X216336880Y-72537320D01*
X216400380Y-72791320D01*
X216400380Y-72829420D01*
X216352120Y-73060560D01*
X216220040Y-73294240D01*
X216027000Y-73502520D01*
X215915240Y-73583800D01*
X215607900Y-73715880D01*
X215287860Y-73741280D01*
X214957660Y-73657460D01*
X214924640Y-73642220D01*
X214675720Y-73479660D01*
X214480140Y-73256140D01*
X214345520Y-72997060D01*
X214276940Y-72722740D01*
X214276940Y-73032620D01*
X214309960Y-73129140D01*
X214510620Y-73428860D01*
X214523320Y-73439020D01*
X214680800Y-73596500D01*
X214850980Y-73705720D01*
X215071960Y-73784460D01*
X215242140Y-73825100D01*
X215374220Y-73901300D01*
X215432640Y-74056240D01*
X215409780Y-74277220D01*
X215369140Y-74414380D01*
X215310720Y-74625200D01*
X215305640Y-74797920D01*
X215310720Y-74820780D01*
X215356440Y-74927460D01*
X215369140Y-74932540D01*
X215369140Y-74703940D01*
X215384380Y-74615040D01*
X215427560Y-74521060D01*
X215473280Y-74424540D01*
X215491060Y-74414380D01*
X215485980Y-74432160D01*
X215485980Y-74528680D01*
X215524080Y-74627740D01*
X215574880Y-74696320D01*
X215625680Y-74703940D01*
X215640920Y-74681080D01*
X215663780Y-74653140D01*
X215673940Y-74703940D01*
X215635840Y-74782680D01*
X215534240Y-74800460D01*
X215412320Y-74754740D01*
X215369140Y-74703940D01*
X215369140Y-74932540D01*
X215450420Y-74965560D01*
X215529160Y-74970640D01*
X215567260Y-74973180D01*
X215567260Y-74886820D01*
X215595200Y-74858880D01*
X215623140Y-74886820D01*
X215595200Y-74912220D01*
X215567260Y-74886820D01*
X215567260Y-74973180D01*
X215671400Y-74983340D01*
X215762840Y-75018900D01*
X215765380Y-75018900D01*
X215821260Y-75044300D01*
X215821260Y-74787760D01*
X215833960Y-74615040D01*
X215866980Y-74526140D01*
X215935560Y-74490580D01*
X216024460Y-74480420D01*
X216161620Y-74460100D01*
X216225120Y-74437240D01*
X216197180Y-74419460D01*
X216108280Y-74414380D01*
X215988900Y-74399140D01*
X215935560Y-74371200D01*
X215966040Y-74343260D01*
X216075260Y-74330560D01*
X216093040Y-74330560D01*
X216227660Y-74355960D01*
X216265760Y-74416920D01*
X216214960Y-74480420D01*
X216090500Y-74526140D01*
X215986360Y-74559160D01*
X215993980Y-74597260D01*
X215999060Y-74597260D01*
X216105740Y-74620120D01*
X216179400Y-74607420D01*
X216258140Y-74587100D01*
X216283540Y-74609960D01*
X216260680Y-74701400D01*
X216232740Y-74787760D01*
X216179400Y-74899520D01*
X216103200Y-74932540D01*
X215993980Y-74917300D01*
X215856820Y-74861420D01*
X215821260Y-74787760D01*
X215821260Y-75044300D01*
X215849200Y-75054460D01*
X216006680Y-75084940D01*
X216202260Y-75107800D01*
X216400380Y-75117960D01*
X216570560Y-75115420D01*
X216682320Y-75100180D01*
X216702640Y-75087480D01*
X216684860Y-75041760D01*
X216560400Y-75023980D01*
X216547700Y-75023980D01*
X216390220Y-75006200D01*
X216319100Y-74960480D01*
X216344500Y-74896980D01*
X216395300Y-74861420D01*
X216560400Y-74805540D01*
X216682320Y-74851260D01*
X216745820Y-74947780D01*
X216794080Y-75029060D01*
X216852500Y-75069700D01*
X216900760Y-75072240D01*
X216900760Y-74942700D01*
X216928700Y-74912220D01*
X216956640Y-74942700D01*
X216928700Y-74970640D01*
X216900760Y-74942700D01*
X216900760Y-75072240D01*
X216961720Y-75074780D01*
X217124280Y-75062080D01*
X217370660Y-75029060D01*
X217525600Y-74990960D01*
X217604340Y-74937620D01*
X217622120Y-74871580D01*
X217665300Y-74769980D01*
X217713560Y-74721720D01*
X217759280Y-74640440D01*
X217774520Y-74526140D01*
X217754200Y-74414380D01*
X217711020Y-74340720D01*
X217660220Y-74338180D01*
X217647520Y-74333100D01*
X217703400Y-74272140D01*
X217705940Y-74269600D01*
X217822780Y-74157840D01*
X217893900Y-74079100D01*
X217949780Y-74025760D01*
X217947240Y-74063860D01*
X217939620Y-74089260D01*
X217942160Y-74162920D01*
X218015820Y-74175620D01*
X218094560Y-74142600D01*
X218089480Y-74063860D01*
X218010740Y-73906380D01*
X217896440Y-73797160D01*
X217777060Y-73746360D01*
X217675460Y-73774300D01*
X217647520Y-73807320D01*
X217584020Y-73822560D01*
X217507820Y-73769220D01*
X217426540Y-73710800D01*
X217406220Y-73731120D01*
X217444320Y-73840340D01*
X217484960Y-73929240D01*
X217535760Y-74041000D01*
X217538300Y-74061320D01*
X217490040Y-73997820D01*
X217477340Y-73982580D01*
X217383360Y-73878440D01*
X217332560Y-73868280D01*
X217342720Y-73949560D01*
X217380820Y-74038460D01*
X217459560Y-74213720D01*
X217512900Y-74383900D01*
X217512900Y-74386440D01*
X217556080Y-74498200D01*
X217611960Y-74538840D01*
X217614500Y-74538840D01*
X217632280Y-74543920D01*
X217632280Y-74096880D01*
X217632280Y-74010520D01*
X217685620Y-73903840D01*
X217749120Y-73868280D01*
X217827860Y-73888600D01*
X217840560Y-73964800D01*
X217782140Y-74063860D01*
X217779600Y-74068940D01*
X217683080Y-74132440D01*
X217632280Y-74096880D01*
X217632280Y-74543920D01*
X217672920Y-74554080D01*
X217652600Y-74637900D01*
X217568780Y-74759820D01*
X217436700Y-74869040D01*
X217271600Y-74932540D01*
X217109040Y-74937620D01*
X216992200Y-74884280D01*
X216979500Y-74869040D01*
X216938860Y-74780140D01*
X216971880Y-74736960D01*
X216979500Y-74691240D01*
X216890600Y-74632820D01*
X216771220Y-74538840D01*
X216669620Y-74394060D01*
X216656920Y-74366120D01*
X216595960Y-74129900D01*
X216636600Y-73929240D01*
X216773760Y-73774300D01*
X216837260Y-73738740D01*
X216946480Y-73662540D01*
X216959180Y-73611740D01*
X216885520Y-73604120D01*
X216771220Y-73642220D01*
X216664540Y-73723500D01*
X216565480Y-73847960D01*
X216499440Y-73977500D01*
X216486740Y-74079100D01*
X216491820Y-74091800D01*
X216476580Y-74132440D01*
X216458800Y-74137520D01*
X216418160Y-74086720D01*
X216402920Y-73969880D01*
X216400380Y-73967340D01*
X216385140Y-73855580D01*
X216347040Y-73830180D01*
X216344500Y-73830180D01*
X216306400Y-73903840D01*
X216291160Y-74038460D01*
X216291160Y-74051160D01*
X216253060Y-74206100D01*
X216164160Y-74287380D01*
X216052400Y-74292460D01*
X215950800Y-74223880D01*
X215887300Y-74074020D01*
X215884760Y-74063860D01*
X215887300Y-73863200D01*
X215976200Y-73690480D01*
X216120980Y-73545700D01*
X216237820Y-73416160D01*
X216347040Y-73238360D01*
X216372440Y-73182480D01*
X216438480Y-73035160D01*
X216471500Y-72964040D01*
X216471500Y-72613520D01*
X216529920Y-72595740D01*
X216583260Y-72610980D01*
X216644220Y-72679560D01*
X216641680Y-72722740D01*
X216580720Y-72796400D01*
X216517220Y-72765920D01*
X216489280Y-72712580D01*
X216471500Y-72613520D01*
X216471500Y-72964040D01*
X216484200Y-72938640D01*
X216494360Y-72920860D01*
X216550240Y-72928480D01*
X216664540Y-73002140D01*
X216789000Y-73103740D01*
X216789000Y-72664320D01*
X216816940Y-72636380D01*
X216844880Y-72664320D01*
X216816940Y-72692260D01*
X216789000Y-72664320D01*
X216789000Y-73103740D01*
X216816940Y-73129140D01*
X216987120Y-73289160D01*
X217060780Y-73362820D01*
X217228420Y-73527920D01*
X217337640Y-73616820D01*
X217383360Y-73626980D01*
X217360500Y-73555860D01*
X217352880Y-73538080D01*
X217337640Y-73411080D01*
X217378280Y-73332340D01*
X217439240Y-73233280D01*
X217457020Y-73182480D01*
X217418920Y-73098660D01*
X217322400Y-72984360D01*
X217203020Y-72870060D01*
X217091260Y-72786240D01*
X217020140Y-72760840D01*
X216943940Y-72732900D01*
X216931240Y-72692260D01*
X216877900Y-72621140D01*
X216735660Y-72552560D01*
X216664540Y-72527160D01*
X216512140Y-72471280D01*
X216415620Y-72412860D01*
X216400380Y-72387460D01*
X216357200Y-72283320D01*
X216250520Y-72143620D01*
X216100660Y-71991220D01*
X215933020Y-71854060D01*
X215775540Y-71752460D01*
X215747600Y-71739760D01*
X215597740Y-71671180D01*
X215531700Y-71612760D01*
X215521540Y-71526400D01*
X215536780Y-71440040D01*
X215552020Y-71307960D01*
X215524080Y-71252080D01*
X215485980Y-71247000D01*
X215432640Y-71267320D01*
X215419940Y-71351140D01*
X215435180Y-71467980D01*
X215470740Y-71691500D01*
X215224360Y-71691500D01*
X214965280Y-71729600D01*
X214693500Y-71833740D01*
X214434420Y-72014080D01*
X214266780Y-72252840D01*
X214188040Y-72524620D01*
X214188040Y-72524620D01*
G36*
X217233500Y-73713340D02*
X217274140Y-73764140D01*
X217289380Y-73774300D01*
X217342720Y-73789540D01*
X217345260Y-73781920D01*
X217307160Y-73731120D01*
X217289380Y-73720960D01*
X217238580Y-73705720D01*
X217233500Y-73713340D01*
X217233500Y-73713340D01*
X217233500Y-73713340D01*
G37*
X217233500Y-73713340D02*
X217274140Y-73764140D01*
X217289380Y-73774300D01*
X217342720Y-73789540D01*
X217345260Y-73781920D01*
X217307160Y-73731120D01*
X217289380Y-73720960D01*
X217238580Y-73705720D01*
X217233500Y-73713340D01*
X217233500Y-73713340D01*
G36*
X216956640Y-72720200D02*
X216984580Y-72745600D01*
X217012520Y-72720200D01*
X216984580Y-72692260D01*
X216956640Y-72720200D01*
X216956640Y-72720200D01*
X216956640Y-72720200D01*
G37*
X216956640Y-72720200D02*
X216984580Y-72745600D01*
X217012520Y-72720200D01*
X216984580Y-72692260D01*
X216956640Y-72720200D01*
X216956640Y-72720200D01*
G36*
X215869520Y-71404480D02*
X215943180Y-71445120D01*
X216085420Y-71467980D01*
X216138760Y-71470520D01*
X216278460Y-71478140D01*
X216314020Y-71501000D01*
X216291160Y-71523860D01*
X216240360Y-71564500D01*
X216245440Y-71597520D01*
X216321640Y-71633080D01*
X216484200Y-71683880D01*
X216575640Y-71711820D01*
X216791540Y-71772780D01*
X216910920Y-71795640D01*
X216943940Y-71782940D01*
X216903300Y-71737220D01*
X216877900Y-71716900D01*
X216750900Y-71650860D01*
X216667080Y-71635620D01*
X216583260Y-71600060D01*
X216565480Y-71559420D01*
X216547700Y-71495920D01*
X216471500Y-71447660D01*
X216324180Y-71412100D01*
X216115900Y-71379080D01*
X215945720Y-71363840D01*
X215869520Y-71374000D01*
X215869520Y-71404480D01*
X215869520Y-71404480D01*
X215869520Y-71404480D01*
G37*
X215869520Y-71404480D02*
X215943180Y-71445120D01*
X216085420Y-71467980D01*
X216138760Y-71470520D01*
X216278460Y-71478140D01*
X216314020Y-71501000D01*
X216291160Y-71523860D01*
X216240360Y-71564500D01*
X216245440Y-71597520D01*
X216321640Y-71633080D01*
X216484200Y-71683880D01*
X216575640Y-71711820D01*
X216791540Y-71772780D01*
X216910920Y-71795640D01*
X216943940Y-71782940D01*
X216903300Y-71737220D01*
X216877900Y-71716900D01*
X216750900Y-71650860D01*
X216667080Y-71635620D01*
X216583260Y-71600060D01*
X216565480Y-71559420D01*
X216547700Y-71495920D01*
X216471500Y-71447660D01*
X216324180Y-71412100D01*
X216115900Y-71379080D01*
X215945720Y-71363840D01*
X215869520Y-71374000D01*
X215869520Y-71404480D01*
X215869520Y-71404480D01*
G36*
X214124540Y-71191120D02*
X214172800Y-71229220D01*
X214287100Y-71247000D01*
X214287100Y-71247000D01*
X214403940Y-71262240D01*
X214426800Y-71310500D01*
X214421720Y-71330820D01*
X214421720Y-71376540D01*
X214482680Y-71404480D01*
X214627460Y-71412100D01*
X214723980Y-71412100D01*
X214909400Y-71404480D01*
X215044020Y-71384160D01*
X215094820Y-71358760D01*
X215069420Y-71320660D01*
X214952580Y-71302880D01*
X214909400Y-71302880D01*
X214734140Y-71280020D01*
X214657940Y-71219060D01*
X214594440Y-71173340D01*
X214469980Y-71142860D01*
X214322660Y-71132700D01*
X214195660Y-71142860D01*
X214127080Y-71178420D01*
X214124540Y-71191120D01*
X214124540Y-71191120D01*
X214124540Y-71191120D01*
G37*
X214124540Y-71191120D02*
X214172800Y-71229220D01*
X214287100Y-71247000D01*
X214287100Y-71247000D01*
X214403940Y-71262240D01*
X214426800Y-71310500D01*
X214421720Y-71330820D01*
X214421720Y-71376540D01*
X214482680Y-71404480D01*
X214627460Y-71412100D01*
X214723980Y-71412100D01*
X214909400Y-71404480D01*
X215044020Y-71384160D01*
X215094820Y-71358760D01*
X215069420Y-71320660D01*
X214952580Y-71302880D01*
X214909400Y-71302880D01*
X214734140Y-71280020D01*
X214657940Y-71219060D01*
X214594440Y-71173340D01*
X214469980Y-71142860D01*
X214322660Y-71132700D01*
X214195660Y-71142860D01*
X214127080Y-71178420D01*
X214124540Y-71191120D01*
X214124540Y-71191120D01*
G36*
X215623140Y-71059040D02*
X215640920Y-71104760D01*
X215704420Y-71084440D01*
X215757760Y-71048880D01*
X215854280Y-70995540D01*
X215897460Y-71008240D01*
X215910160Y-71043800D01*
X215940640Y-71079360D01*
X216019380Y-71066660D01*
X216161620Y-71005700D01*
X216260680Y-70954900D01*
X216418160Y-70868540D01*
X216514680Y-70799960D01*
X216532460Y-70764400D01*
X216529920Y-70764400D01*
X216438480Y-70772020D01*
X216306400Y-70822820D01*
X216296240Y-70827900D01*
X216156540Y-70876160D01*
X216047320Y-70881240D01*
X216042240Y-70878700D01*
X215927940Y-70876160D01*
X215790780Y-70914260D01*
X215673940Y-70982840D01*
X215623140Y-71059040D01*
X215623140Y-71059040D01*
X215623140Y-71059040D01*
X215623140Y-71059040D01*
G37*
X215623140Y-71059040D02*
X215640920Y-71104760D01*
X215704420Y-71084440D01*
X215757760Y-71048880D01*
X215854280Y-70995540D01*
X215897460Y-71008240D01*
X215910160Y-71043800D01*
X215940640Y-71079360D01*
X216019380Y-71066660D01*
X216161620Y-71005700D01*
X216260680Y-70954900D01*
X216418160Y-70868540D01*
X216514680Y-70799960D01*
X216532460Y-70764400D01*
X216529920Y-70764400D01*
X216438480Y-70772020D01*
X216306400Y-70822820D01*
X216296240Y-70827900D01*
X216156540Y-70876160D01*
X216047320Y-70881240D01*
X216042240Y-70878700D01*
X215927940Y-70876160D01*
X215790780Y-70914260D01*
X215673940Y-70982840D01*
X215623140Y-71059040D01*
X215623140Y-71059040D01*
X215623140Y-71059040D01*
G36*
X214665560Y-70698360D02*
X214685880Y-70759320D01*
X214746840Y-70830440D01*
X214861140Y-70924420D01*
X215000840Y-71008240D01*
X215140540Y-71074280D01*
X215244680Y-71104760D01*
X215290400Y-71086980D01*
X215290400Y-71084440D01*
X215242140Y-71026020D01*
X215186260Y-70998080D01*
X215074500Y-70937120D01*
X214942420Y-70838060D01*
X214932260Y-70827900D01*
X214807800Y-70733920D01*
X214713820Y-70690740D01*
X214665560Y-70698360D01*
X214665560Y-70698360D01*
X214665560Y-70698360D01*
G37*
X214665560Y-70698360D02*
X214685880Y-70759320D01*
X214746840Y-70830440D01*
X214861140Y-70924420D01*
X215000840Y-71008240D01*
X215140540Y-71074280D01*
X215244680Y-71104760D01*
X215290400Y-71086980D01*
X215290400Y-71084440D01*
X215242140Y-71026020D01*
X215186260Y-70998080D01*
X215074500Y-70937120D01*
X214942420Y-70838060D01*
X214932260Y-70827900D01*
X214807800Y-70733920D01*
X214713820Y-70690740D01*
X214665560Y-70698360D01*
X214665560Y-70698360D01*
G36*
X214546180Y-72440800D02*
X214569040Y-72605900D01*
X214584280Y-72644000D01*
X214655400Y-72788780D01*
X214746840Y-72890380D01*
X214866220Y-72953880D01*
X214866220Y-72895460D01*
X214889080Y-72875140D01*
X214975440Y-72867520D01*
X214995760Y-72880220D01*
X214980520Y-72905620D01*
X214922100Y-72910700D01*
X214866220Y-72895460D01*
X214866220Y-72953880D01*
X214884000Y-72964040D01*
X215097360Y-73037700D01*
X215135460Y-73047860D01*
X215325960Y-73106280D01*
X215422480Y-73154540D01*
X215447880Y-73210420D01*
X215412320Y-73286620D01*
X215402160Y-73299320D01*
X215384380Y-73421240D01*
X215407240Y-73479660D01*
X215427560Y-73555860D01*
X215364060Y-73581260D01*
X215333580Y-73581260D01*
X215188800Y-73553320D01*
X215054180Y-73499980D01*
X214947500Y-73451720D01*
X214904320Y-73464420D01*
X214899240Y-73494900D01*
X214950040Y-73566020D01*
X215074500Y-73626980D01*
X215239600Y-73672700D01*
X215404700Y-73693020D01*
X215539320Y-73680320D01*
X215587580Y-73654920D01*
X215618060Y-73571100D01*
X215623140Y-73517760D01*
X215668860Y-73433940D01*
X215813640Y-73367900D01*
X215841580Y-73357740D01*
X216024460Y-73279000D01*
X216171780Y-73154540D01*
X216260680Y-73014840D01*
X216270840Y-72900540D01*
X216270840Y-72819260D01*
X216296240Y-72804020D01*
X216344500Y-72760840D01*
X216344500Y-72740520D01*
X216303860Y-72702420D01*
X216268300Y-72707500D01*
X216164160Y-72702420D01*
X216131140Y-72679560D01*
X216095580Y-72666860D01*
X216093040Y-72750680D01*
X216100660Y-72809100D01*
X216105740Y-72964040D01*
X216044780Y-73073260D01*
X216009220Y-73108820D01*
X215912700Y-73177400D01*
X215864440Y-73157080D01*
X215859360Y-73149460D01*
X215808560Y-73083420D01*
X215765380Y-73103740D01*
X215767920Y-73177400D01*
X215780620Y-73235820D01*
X215747600Y-73202800D01*
X215620600Y-73093580D01*
X215437720Y-73007220D01*
X215247220Y-72969120D01*
X215229440Y-72969120D01*
X215112600Y-72951340D01*
X215066880Y-72913240D01*
X215110060Y-72859900D01*
X215122760Y-72857360D01*
X215176100Y-72814180D01*
X215178640Y-72798940D01*
X215135460Y-72765920D01*
X215071960Y-72773540D01*
X214889080Y-72786240D01*
X214723980Y-72715120D01*
X214630000Y-72600820D01*
X214576660Y-72468740D01*
X214579200Y-72425560D01*
X214642700Y-72461120D01*
X214647780Y-72466200D01*
X214729060Y-72499220D01*
X214759540Y-72476360D01*
X214825580Y-72430640D01*
X214965280Y-72367140D01*
X215074500Y-72329040D01*
X215369140Y-72268080D01*
X215605360Y-72301100D01*
X215783160Y-72428100D01*
X215861900Y-72552560D01*
X215935560Y-72725280D01*
X215950800Y-72819260D01*
X215907620Y-72857360D01*
X215879680Y-72857360D01*
X215767920Y-72809100D01*
X215684100Y-72679560D01*
X215663780Y-72590660D01*
X215630760Y-72463660D01*
X215597740Y-72440800D01*
X215572340Y-72522080D01*
X215567260Y-72626220D01*
X215587580Y-72804020D01*
X215651080Y-72895460D01*
X215663780Y-72905620D01*
X215813640Y-72931020D01*
X215945720Y-72862440D01*
X216024460Y-72725280D01*
X216029540Y-72710040D01*
X216011760Y-72537320D01*
X215907620Y-72387460D01*
X215732360Y-72278240D01*
X215513920Y-72214740D01*
X215267540Y-72212200D01*
X215145620Y-72237600D01*
X214962740Y-72278240D01*
X214807800Y-72301100D01*
X214767160Y-72303640D01*
X214612220Y-72339200D01*
X214546180Y-72440800D01*
X214546180Y-72440800D01*
X214546180Y-72440800D01*
G37*
X214546180Y-72440800D02*
X214569040Y-72605900D01*
X214584280Y-72644000D01*
X214655400Y-72788780D01*
X214746840Y-72890380D01*
X214866220Y-72953880D01*
X214866220Y-72895460D01*
X214889080Y-72875140D01*
X214975440Y-72867520D01*
X214995760Y-72880220D01*
X214980520Y-72905620D01*
X214922100Y-72910700D01*
X214866220Y-72895460D01*
X214866220Y-72953880D01*
X214884000Y-72964040D01*
X215097360Y-73037700D01*
X215135460Y-73047860D01*
X215325960Y-73106280D01*
X215422480Y-73154540D01*
X215447880Y-73210420D01*
X215412320Y-73286620D01*
X215402160Y-73299320D01*
X215384380Y-73421240D01*
X215407240Y-73479660D01*
X215427560Y-73555860D01*
X215364060Y-73581260D01*
X215333580Y-73581260D01*
X215188800Y-73553320D01*
X215054180Y-73499980D01*
X214947500Y-73451720D01*
X214904320Y-73464420D01*
X214899240Y-73494900D01*
X214950040Y-73566020D01*
X215074500Y-73626980D01*
X215239600Y-73672700D01*
X215404700Y-73693020D01*
X215539320Y-73680320D01*
X215587580Y-73654920D01*
X215618060Y-73571100D01*
X215623140Y-73517760D01*
X215668860Y-73433940D01*
X215813640Y-73367900D01*
X215841580Y-73357740D01*
X216024460Y-73279000D01*
X216171780Y-73154540D01*
X216260680Y-73014840D01*
X216270840Y-72900540D01*
X216270840Y-72819260D01*
X216296240Y-72804020D01*
X216344500Y-72760840D01*
X216344500Y-72740520D01*
X216303860Y-72702420D01*
X216268300Y-72707500D01*
X216164160Y-72702420D01*
X216131140Y-72679560D01*
X216095580Y-72666860D01*
X216093040Y-72750680D01*
X216100660Y-72809100D01*
X216105740Y-72964040D01*
X216044780Y-73073260D01*
X216009220Y-73108820D01*
X215912700Y-73177400D01*
X215864440Y-73157080D01*
X215859360Y-73149460D01*
X215808560Y-73083420D01*
X215765380Y-73103740D01*
X215767920Y-73177400D01*
X215780620Y-73235820D01*
X215747600Y-73202800D01*
X215620600Y-73093580D01*
X215437720Y-73007220D01*
X215247220Y-72969120D01*
X215229440Y-72969120D01*
X215112600Y-72951340D01*
X215066880Y-72913240D01*
X215110060Y-72859900D01*
X215122760Y-72857360D01*
X215176100Y-72814180D01*
X215178640Y-72798940D01*
X215135460Y-72765920D01*
X215071960Y-72773540D01*
X214889080Y-72786240D01*
X214723980Y-72715120D01*
X214630000Y-72600820D01*
X214576660Y-72468740D01*
X214579200Y-72425560D01*
X214642700Y-72461120D01*
X214647780Y-72466200D01*
X214729060Y-72499220D01*
X214759540Y-72476360D01*
X214825580Y-72430640D01*
X214965280Y-72367140D01*
X215074500Y-72329040D01*
X215369140Y-72268080D01*
X215605360Y-72301100D01*
X215783160Y-72428100D01*
X215861900Y-72552560D01*
X215935560Y-72725280D01*
X215950800Y-72819260D01*
X215907620Y-72857360D01*
X215879680Y-72857360D01*
X215767920Y-72809100D01*
X215684100Y-72679560D01*
X215663780Y-72590660D01*
X215630760Y-72463660D01*
X215597740Y-72440800D01*
X215572340Y-72522080D01*
X215567260Y-72626220D01*
X215587580Y-72804020D01*
X215651080Y-72895460D01*
X215663780Y-72905620D01*
X215813640Y-72931020D01*
X215945720Y-72862440D01*
X216024460Y-72725280D01*
X216029540Y-72710040D01*
X216011760Y-72537320D01*
X215907620Y-72387460D01*
X215732360Y-72278240D01*
X215513920Y-72214740D01*
X215267540Y-72212200D01*
X215145620Y-72237600D01*
X214962740Y-72278240D01*
X214807800Y-72301100D01*
X214767160Y-72303640D01*
X214612220Y-72339200D01*
X214546180Y-72440800D01*
X214546180Y-72440800D01*
G36*
X214802720Y-73444100D02*
X214807800Y-73449180D01*
X214840820Y-73444100D01*
X214845900Y-73413620D01*
X214825580Y-73367900D01*
X214807800Y-73375520D01*
X214802720Y-73444100D01*
X214802720Y-73444100D01*
X214802720Y-73444100D01*
G37*
X214802720Y-73444100D02*
X214807800Y-73449180D01*
X214840820Y-73444100D01*
X214845900Y-73413620D01*
X214825580Y-73367900D01*
X214807800Y-73375520D01*
X214802720Y-73444100D01*
X214802720Y-73444100D01*
G36*
X214566500Y-73212960D02*
X214607140Y-73263760D01*
X214622380Y-73273920D01*
X214675720Y-73289160D01*
X214678260Y-73281540D01*
X214640160Y-73230740D01*
X214622380Y-73220580D01*
X214571580Y-73205340D01*
X214566500Y-73212960D01*
X214566500Y-73212960D01*
X214566500Y-73212960D01*
G37*
X214566500Y-73212960D02*
X214607140Y-73263760D01*
X214622380Y-73273920D01*
X214675720Y-73289160D01*
X214678260Y-73281540D01*
X214640160Y-73230740D01*
X214622380Y-73220580D01*
X214571580Y-73205340D01*
X214566500Y-73212960D01*
X214566500Y-73212960D01*
G36*
X215900000Y-73108820D02*
X215927940Y-73136760D01*
X215955880Y-73108820D01*
X215927940Y-73080880D01*
X215900000Y-73108820D01*
X215900000Y-73108820D01*
X215900000Y-73108820D01*
G37*
X215900000Y-73108820D02*
X215927940Y-73136760D01*
X215955880Y-73108820D01*
X215927940Y-73080880D01*
X215900000Y-73108820D01*
X215900000Y-73108820D01*
G36*
X215247220Y-72443340D02*
X215252300Y-72450960D01*
X215285320Y-72443340D01*
X215290400Y-72412860D01*
X215270080Y-72367140D01*
X215252300Y-72377300D01*
X215247220Y-72443340D01*
X215247220Y-72443340D01*
X215247220Y-72443340D01*
G37*
X215247220Y-72443340D02*
X215252300Y-72450960D01*
X215285320Y-72443340D01*
X215290400Y-72412860D01*
X215270080Y-72367140D01*
X215252300Y-72377300D01*
X215247220Y-72443340D01*
X215247220Y-72443340D01*
D13*
X153670000Y-69850000D03*
X153670000Y-72390000D03*
X153670000Y-74930000D03*
X156210000Y-69850000D03*
X156210000Y-72390000D03*
X156210000Y-74930000D03*
X171450000Y-69850000D03*
X171450000Y-72390000D03*
X171450000Y-74930000D03*
X173990000Y-69850000D03*
X173990000Y-72390000D03*
X173990000Y-74930000D03*
X189230000Y-69850000D03*
X189230000Y-72390000D03*
X189230000Y-74930000D03*
X191770000Y-69850000D03*
X191770000Y-72390000D03*
X191770000Y-74930000D03*
X207010000Y-69850000D03*
X207010000Y-72390000D03*
X207010000Y-74930000D03*
X209550000Y-69850000D03*
X209550000Y-72390000D03*
X209550000Y-74930000D03*
X125730000Y-77470000D03*
X128270000Y-77470000D03*
X130810000Y-77470000D03*
D14*
X160020000Y-115570000D03*
X149860000Y-115570000D03*
D15*
X154940000Y-110490000D03*
D16*
X157480000Y-110490000D03*
D14*
X177800000Y-115570000D03*
X167640000Y-115570000D03*
D15*
X172720000Y-110490000D03*
D16*
X175260000Y-110490000D03*
D14*
X195580000Y-115570000D03*
X185420000Y-115570000D03*
D15*
X190500000Y-110490000D03*
D16*
X193040000Y-110490000D03*
D14*
X213360000Y-115570000D03*
X203200000Y-115570000D03*
D15*
X208280000Y-110490000D03*
D16*
X210820000Y-110490000D03*
D17*
X139700000Y-118110000D03*
X137160000Y-118110000D03*
X134620000Y-118110000D03*
X127000000Y-118110000D03*
X129540000Y-118110000D03*
X132080000Y-118110000D03*
X121920000Y-118110000D03*
X119380000Y-118110000D03*
X116840000Y-118110000D03*
X111760000Y-118110000D03*
X109220000Y-118110000D03*
X139700000Y-69850000D03*
X137160000Y-69850000D03*
X134620000Y-69850000D03*
X132080000Y-69850000D03*
X129540000Y-69850000D03*
X127000000Y-69850000D03*
X124460000Y-69850000D03*
X121920000Y-69850000D03*
X117856000Y-69850000D03*
X115316000Y-69850000D03*
X112776000Y-69850000D03*
X110236000Y-69850000D03*
X107696000Y-69850000D03*
X105156000Y-69850000D03*
X102616000Y-69850000D03*
X100076000Y-69850000D03*
X114300000Y-118110000D03*
D18*
X142240000Y-113030000D03*
X142240000Y-85090000D03*
X91440000Y-69850000D03*
X90170000Y-118110000D03*
X219710000Y-113030000D03*
X219710000Y-85090000D03*
D17*
X106680000Y-118110000D03*
X104140000Y-118110000D03*
X97790000Y-69850000D03*
X95250000Y-69850000D03*
D19*
X152400000Y-87630000D03*
D17*
X154940000Y-87630000D03*
X157480000Y-87630000D03*
X152400000Y-105410000D03*
X154940000Y-105410000D03*
X157480000Y-105410000D03*
D19*
X170180000Y-87630000D03*
D17*
X172720000Y-87630000D03*
X175260000Y-87630000D03*
X170180000Y-105410000D03*
X172720000Y-105410000D03*
X175260000Y-105410000D03*
D19*
X187960000Y-87630000D03*
D17*
X190500000Y-87630000D03*
X193040000Y-87630000D03*
X187960000Y-105410000D03*
X190500000Y-105410000D03*
X193040000Y-105410000D03*
D19*
X205740000Y-87630000D03*
D17*
X208280000Y-87630000D03*
X210820000Y-87630000D03*
X205740000Y-105410000D03*
X208280000Y-105410000D03*
X210820000Y-105410000D03*
D20*
X117475000Y-80645000D03*
X217678000Y-91313000D03*
X212090000Y-91313000D03*
X195072000Y-91313000D03*
X159512000Y-91313000D03*
X177292000Y-91313000D03*
X94488000Y-115824000D03*
X94488000Y-112141000D03*
X81407000Y-69850000D03*
X116840000Y-110490000D03*
X108585000Y-110490000D03*
X136525000Y-110490000D03*
X122555000Y-110490000D03*
X87376000Y-113665000D03*
X200660000Y-91313000D03*
X182880000Y-91313000D03*
X165100000Y-91313000D03*
X93853000Y-80010000D03*
X90932000Y-77089000D03*
X97663000Y-80010000D03*
X140970000Y-92710000D03*
X120650000Y-92710000D03*
X106680000Y-92710000D03*
X92710000Y-92710000D03*
X215011000Y-80264000D03*
X216281000Y-91313000D03*
X201549000Y-80264000D03*
X199263000Y-91313000D03*
X163703000Y-91313000D03*
X181483000Y-91313000D03*
X161544000Y-76200000D03*
X183134000Y-77597000D03*
X183769000Y-80264000D03*
X166116000Y-80264000D03*
X160909000Y-91313000D03*
X112395000Y-75946000D03*
X149352000Y-72898000D03*
X162306000Y-91313000D03*
X105791000Y-81280000D03*
X152527000Y-73660000D03*
X178689000Y-91313000D03*
X165608000Y-76327000D03*
X180086000Y-91313000D03*
X175895000Y-76073000D03*
X167767000Y-77724000D03*
X196469000Y-91313000D03*
X108585000Y-77089000D03*
X197866000Y-91313000D03*
X166751000Y-78994000D03*
X164465000Y-77343000D03*
X187706000Y-78994000D03*
X213487000Y-91313000D03*
X147574000Y-72898000D03*
X113665000Y-75946000D03*
X214884000Y-91313000D03*
X111125000Y-82169000D03*
X202311000Y-72644000D03*
X205359000Y-73660000D03*
X121031000Y-82169000D03*
X104140000Y-80010000D03*
X113665000Y-79248000D03*
X102235000Y-74930000D03*
X102489000Y-80391000D03*
D21*
X102743000Y-82931000D02*
X102743000Y-84709000D01*
X105664000Y-80010000D02*
X102743000Y-82931000D01*
X106680000Y-80010000D02*
X105664000Y-80010000D01*
X107315000Y-80645000D02*
X106680000Y-80010000D01*
X117475000Y-80645000D02*
X107315000Y-80645000D01*
X217678000Y-94996000D02*
X218440000Y-94234000D01*
X211455000Y-91948000D02*
X212090000Y-91313000D01*
X212471000Y-94996000D02*
X217678000Y-94996000D01*
X211455000Y-93980000D02*
X212471000Y-94996000D01*
X211455000Y-91948000D02*
X211455000Y-93980000D01*
X218440000Y-92075000D02*
X217678000Y-91313000D01*
X218440000Y-94234000D02*
X218440000Y-92075000D01*
X213614000Y-89789000D02*
X212090000Y-91313000D01*
X200660000Y-88773000D02*
X200660000Y-91313000D01*
X200660000Y-88773000D02*
X204343000Y-85090000D01*
X204343000Y-85090000D02*
X212598000Y-85090000D01*
X212598000Y-85090000D02*
X213614000Y-86106000D01*
X213614000Y-86106000D02*
X213614000Y-89154000D01*
X213614000Y-89154000D02*
X213614000Y-89789000D01*
X193675000Y-93980000D02*
X193675000Y-92710000D01*
X193675000Y-92710000D02*
X195072000Y-91313000D01*
X193675000Y-93980000D02*
X194818000Y-95123000D01*
X194818000Y-95123000D02*
X200279000Y-95123000D01*
X200279000Y-95123000D02*
X200660000Y-94742000D01*
X200660000Y-91313000D02*
X200660000Y-94742000D01*
X195707000Y-90678000D02*
X195072000Y-91313000D01*
X182880000Y-88773000D02*
X182880000Y-91313000D01*
X195707000Y-86233000D02*
X195707000Y-90043000D01*
X194564000Y-85090000D02*
X195707000Y-86233000D01*
X194437000Y-85090000D02*
X194564000Y-85090000D01*
X186563000Y-85090000D02*
X194437000Y-85090000D01*
X182880000Y-88773000D02*
X186563000Y-85090000D01*
X195707000Y-90043000D02*
X195707000Y-90678000D01*
X159512000Y-91313000D02*
X158115000Y-92710000D01*
X165100000Y-94234000D02*
X165100000Y-91313000D01*
X164211000Y-95123000D02*
X165100000Y-94234000D01*
X159258000Y-95123000D02*
X164211000Y-95123000D01*
X158115000Y-93980000D02*
X159258000Y-95123000D01*
X158115000Y-92710000D02*
X158115000Y-93980000D01*
X160147000Y-90043000D02*
X160147000Y-90678000D01*
X102743000Y-84709000D02*
X118110000Y-84709000D01*
X160147000Y-85852000D02*
X160147000Y-90043000D01*
X154940000Y-80645000D02*
X160147000Y-85852000D01*
X151130000Y-80645000D02*
X154940000Y-80645000D01*
X149860000Y-79375000D02*
X151130000Y-80645000D01*
X137922000Y-79375000D02*
X149860000Y-79375000D01*
X132588000Y-84709000D02*
X137922000Y-79375000D01*
X118110000Y-84709000D02*
X132588000Y-84709000D01*
X160147000Y-90678000D02*
X159512000Y-91313000D01*
X177927000Y-90043000D02*
X177927000Y-90678000D01*
X177927000Y-90678000D02*
X177292000Y-91313000D01*
X177927000Y-86233000D02*
X177927000Y-90043000D01*
X176784000Y-85090000D02*
X177927000Y-86233000D01*
X168783000Y-85090000D02*
X176784000Y-85090000D01*
X165100000Y-88773000D02*
X168783000Y-85090000D01*
X165100000Y-88773000D02*
X165100000Y-91313000D01*
X182880000Y-91313000D02*
X182880000Y-94361000D01*
X177292000Y-91313000D02*
X175895000Y-92710000D01*
X175895000Y-92710000D02*
X175895000Y-93980000D01*
X175895000Y-93980000D02*
X176911000Y-94996000D01*
X176911000Y-94996000D02*
X181102000Y-94996000D01*
X181102000Y-94996000D02*
X182245000Y-94996000D01*
X182245000Y-94996000D02*
X182880000Y-94361000D01*
X94488000Y-112141000D02*
X94488000Y-111252000D01*
X96393000Y-110490000D02*
X108585000Y-110490000D01*
X95250000Y-110490000D02*
X96393000Y-110490000D01*
X94488000Y-111252000D02*
X95250000Y-110490000D01*
X94488000Y-112395000D02*
X94488000Y-112141000D01*
X91694000Y-115062000D02*
X93091000Y-116459000D01*
X91694000Y-115062000D02*
X88900000Y-115062000D01*
X88773000Y-115062000D02*
X88900000Y-115062000D01*
X93853000Y-116459000D02*
X94488000Y-115824000D01*
X93091000Y-116459000D02*
X93853000Y-116459000D01*
X94488000Y-112395000D02*
X94488000Y-115824000D01*
X77978000Y-70866000D02*
X80391000Y-70866000D01*
X77089000Y-118872000D02*
X77089000Y-116205000D01*
X77089000Y-116205000D02*
X77089000Y-71755000D01*
X84201000Y-119634000D02*
X80518000Y-119634000D01*
X77089000Y-71755000D02*
X77978000Y-70866000D01*
X88773000Y-115062000D02*
X84201000Y-119634000D01*
X80518000Y-119634000D02*
X77851000Y-119634000D01*
X77089000Y-119634000D02*
X77089000Y-118872000D01*
X77851000Y-119634000D02*
X77089000Y-119634000D01*
X80391000Y-70866000D02*
X81407000Y-69850000D01*
X116840000Y-110490000D02*
X108585000Y-110490000D01*
X122555000Y-110490000D02*
X136525000Y-110490000D01*
X116840000Y-110490000D02*
X122555000Y-110490000D01*
X116840000Y-118110000D02*
X116840000Y-110490000D01*
X88773000Y-115062000D02*
X87376000Y-113665000D01*
X93853000Y-80010000D02*
X97663000Y-80010000D01*
X93853000Y-80010000D02*
X90932000Y-77089000D01*
X98552000Y-84709000D02*
X102743000Y-84709000D01*
X93853000Y-80010000D02*
X98552000Y-84709000D01*
X216154000Y-81407000D02*
X215011000Y-80264000D01*
X216154000Y-91186000D02*
X216154000Y-81407000D01*
X216281000Y-91313000D02*
X216154000Y-91186000D01*
X199263000Y-82550000D02*
X201549000Y-80264000D01*
X199263000Y-91313000D02*
X199263000Y-82550000D01*
X163703000Y-91313000D02*
X163830000Y-91186000D01*
X163830000Y-91186000D02*
X163830000Y-82550000D01*
X163830000Y-82550000D02*
X166116000Y-80264000D01*
X181483000Y-82550000D02*
X183769000Y-80264000D01*
X181483000Y-91313000D02*
X181483000Y-82550000D01*
X166116000Y-80264000D02*
X165608000Y-80264000D01*
X165608000Y-80264000D02*
X161544000Y-76200000D01*
X183769000Y-80264000D02*
X183769000Y-78232000D01*
X183769000Y-78232000D02*
X183134000Y-77597000D01*
X153670000Y-69850000D02*
X153288998Y-69850000D01*
X153288998Y-69850000D02*
X152527000Y-69088002D01*
X96393000Y-72390000D02*
X95885000Y-72390000D01*
X141732000Y-72390000D02*
X96393000Y-72390000D01*
X145033998Y-69088002D02*
X141732000Y-72390000D01*
X152527000Y-69088002D02*
X145033998Y-69088002D01*
X95250000Y-71755000D02*
X95250000Y-69850000D01*
X95885000Y-72390000D02*
X95250000Y-71755000D01*
X157607000Y-78105000D02*
X160909000Y-81407000D01*
X160909000Y-81407000D02*
X160909000Y-91313000D01*
X154940000Y-73660000D02*
X153670000Y-72390000D01*
X154940000Y-73660000D02*
X154940000Y-75438000D01*
X154940000Y-75438000D02*
X157607000Y-78105000D01*
X141986000Y-73152000D02*
X145669000Y-73152000D01*
X112395000Y-73152000D02*
X112395000Y-75946000D01*
X141986000Y-73152000D02*
X112395000Y-73152000D01*
X148336000Y-71882000D02*
X149352000Y-72898000D01*
X146939000Y-71882000D02*
X148336000Y-71882000D01*
X145669000Y-73152000D02*
X146939000Y-71882000D01*
X99314000Y-71755000D02*
X98552000Y-71755000D01*
X154940000Y-68580000D02*
X152019000Y-68580000D01*
X152019000Y-68580000D02*
X144653000Y-68580000D01*
X144653000Y-68580000D02*
X141478000Y-71755000D01*
X141478000Y-71755000D02*
X99314000Y-71755000D01*
X156210000Y-69850000D02*
X154940000Y-68580000D01*
X97790000Y-70993000D02*
X97790000Y-69850000D01*
X98552000Y-71755000D02*
X97790000Y-70993000D01*
X191770000Y-69850000D02*
X193040000Y-68580000D01*
X208280000Y-68580000D02*
X209550000Y-69850000D01*
X193040000Y-68580000D02*
X208280000Y-68580000D01*
X173990000Y-69850000D02*
X175260000Y-68580000D01*
X190500000Y-68580000D02*
X191770000Y-69850000D01*
X175260000Y-68580000D02*
X190500000Y-68580000D01*
X156210000Y-69850000D02*
X157480000Y-68580000D01*
X172720000Y-68580000D02*
X173990000Y-69850000D01*
X157480000Y-68580000D02*
X172720000Y-68580000D01*
X162306000Y-91313000D02*
X162306000Y-85471000D01*
X162306000Y-85471000D02*
X162306000Y-79121000D01*
X162306000Y-79121000D02*
X162306000Y-78613000D01*
X162306000Y-78613000D02*
X156210000Y-72517000D01*
X156210000Y-72517000D02*
X156210000Y-72390000D01*
X150241000Y-77724000D02*
X136398000Y-77724000D01*
X136398000Y-77724000D02*
X131064000Y-83058000D01*
X131064000Y-83058000D02*
X107569000Y-83058000D01*
X107569000Y-83058000D02*
X105791000Y-81280000D01*
X150241000Y-75946000D02*
X152527000Y-73660000D01*
X150241000Y-77724000D02*
X150241000Y-75946000D01*
X172720000Y-73660000D02*
X171450000Y-72390000D01*
X174752000Y-73660000D02*
X172720000Y-73660000D01*
X178689000Y-77597000D02*
X174752000Y-73660000D01*
X178689000Y-80518000D02*
X178689000Y-77597000D01*
X178689000Y-88646000D02*
X178689000Y-80518000D01*
X178689000Y-91313000D02*
X178689000Y-88646000D01*
X165608000Y-76327000D02*
X170053000Y-76327000D01*
X170053000Y-76327000D02*
X171450000Y-74930000D01*
X174752000Y-72390000D02*
X173990000Y-72390000D01*
X180086000Y-77724000D02*
X174752000Y-72390000D01*
X180086000Y-85725000D02*
X180086000Y-77724000D01*
X180086000Y-91313000D02*
X180086000Y-85725000D01*
X175895000Y-76200000D02*
X175895000Y-76073000D01*
X174371000Y-77724000D02*
X175895000Y-76200000D01*
X167767000Y-77724000D02*
X174371000Y-77724000D01*
X195834000Y-77216000D02*
X196469000Y-77851000D01*
X196469000Y-77851000D02*
X196469000Y-91313000D01*
X190500000Y-73660000D02*
X189230000Y-72390000D01*
X190500000Y-73660000D02*
X192278000Y-73660000D01*
X192278000Y-73660000D02*
X195834000Y-77216000D01*
X185039000Y-71755000D02*
X188087000Y-74803000D01*
X185039000Y-71755000D02*
X183134000Y-69850000D01*
X183134000Y-69850000D02*
X177165000Y-69850000D01*
X177165000Y-69850000D02*
X175895000Y-71120000D01*
X175895000Y-71120000D02*
X170688000Y-71120000D01*
X170688000Y-71120000D02*
X168783000Y-69215000D01*
X168783000Y-69215000D02*
X158496000Y-69215000D01*
X158496000Y-69215000D02*
X156591000Y-71120000D01*
X156591000Y-71120000D02*
X152908000Y-71120000D01*
X152908000Y-71120000D02*
X149479000Y-74549000D01*
X149479000Y-74549000D02*
X117348000Y-74549000D01*
X117348000Y-74549000D02*
X114808000Y-77089000D01*
X114808000Y-77089000D02*
X108585000Y-77089000D01*
X189103000Y-74803000D02*
X189230000Y-74930000D01*
X188087000Y-74803000D02*
X189103000Y-74803000D01*
X189230000Y-74930000D02*
X189103000Y-74930000D01*
X197866000Y-91313000D02*
X197866000Y-88265000D01*
X197866000Y-88265000D02*
X197866000Y-78613000D01*
X197866000Y-78613000D02*
X197866000Y-78105000D01*
X197866000Y-78105000D02*
X192151000Y-72390000D01*
X192151000Y-72390000D02*
X191770000Y-72390000D01*
X191770000Y-74930000D02*
X187706000Y-78994000D01*
X166116000Y-78994000D02*
X166751000Y-78994000D01*
X164465000Y-77343000D02*
X166116000Y-78994000D01*
X214503000Y-90297000D02*
X214503000Y-89662000D01*
X213487000Y-91313000D02*
X214503000Y-90297000D01*
X214503000Y-83439000D02*
X214503000Y-89535000D01*
X210312000Y-79248000D02*
X208280000Y-77216000D01*
X208280000Y-77216000D02*
X208280000Y-73660000D01*
X207010000Y-72390000D02*
X208280000Y-73660000D01*
X214503000Y-83439000D02*
X210312000Y-79248000D01*
X147574000Y-72898000D02*
X146558000Y-73914000D01*
X146558000Y-73914000D02*
X142367000Y-73914000D01*
X113665000Y-75946000D02*
X113665000Y-74041000D01*
X113665000Y-74041000D02*
X113792000Y-73914000D01*
X113792000Y-73914000D02*
X142367000Y-73914000D01*
X215392000Y-90805000D02*
X215392000Y-90170000D01*
X214884000Y-91313000D02*
X215392000Y-90805000D01*
X215392000Y-82804000D02*
X215392000Y-90043000D01*
X211836000Y-79248000D02*
X211836000Y-74422000D01*
X211836000Y-74422000D02*
X209804000Y-72390000D01*
X209550000Y-72390000D02*
X209804000Y-72390000D01*
X215392000Y-82804000D02*
X211836000Y-79248000D01*
X204343000Y-72644000D02*
X202311000Y-72644000D01*
X205359000Y-73660000D02*
X204343000Y-72644000D01*
X121031000Y-82169000D02*
X111125000Y-82169000D01*
X128270000Y-77470000D02*
X125984000Y-75184000D01*
X117729000Y-75184000D02*
X113665000Y-79248000D01*
X125984000Y-75184000D02*
X117729000Y-75184000D01*
X106172000Y-79248000D02*
X104902000Y-79248000D01*
X113665000Y-79248000D02*
X106172000Y-79248000D01*
X104902000Y-79248000D02*
X104140000Y-80010000D01*
X102489000Y-80264000D02*
X102489000Y-80391000D01*
X102235000Y-80010000D02*
X102489000Y-80264000D01*
X102235000Y-74930000D02*
X102235000Y-80010000D01*
G36*
X168774000Y-87004000D02*
X168774000Y-87503000D01*
X170053000Y-87503000D01*
X170053000Y-87483000D01*
X170307000Y-87483000D01*
X170307000Y-87503000D01*
X170327000Y-87503000D01*
X170327000Y-87757000D01*
X170307000Y-87757000D01*
X170307000Y-89369767D01*
X170524484Y-89492145D01*
X170600720Y-89476576D01*
X171084390Y-89212995D01*
X171430374Y-88784386D01*
X171445278Y-88733783D01*
X171732172Y-89163149D01*
X172185391Y-89465981D01*
X172720000Y-89572321D01*
X173254609Y-89465981D01*
X173707828Y-89163149D01*
X173990000Y-88740850D01*
X174272172Y-89163149D01*
X174725391Y-89465981D01*
X175260000Y-89572321D01*
X175794609Y-89465981D01*
X176247828Y-89163149D01*
X176403000Y-88930918D01*
X176403000Y-90117394D01*
X175170197Y-91350197D01*
X175142334Y-91392211D01*
X175133000Y-91440000D01*
X175133000Y-95250000D01*
X175143006Y-95299410D01*
X175170197Y-95339803D01*
X177710197Y-97879803D01*
X177752211Y-97907666D01*
X177800000Y-97917000D01*
X184023000Y-97917000D01*
X184023000Y-110437394D01*
X181520197Y-112940197D01*
X181492334Y-112982211D01*
X181483000Y-113030000D01*
X181483000Y-119965000D01*
X165227000Y-119965000D01*
X165227000Y-116042325D01*
X165254587Y-116042325D01*
X165616916Y-116919229D01*
X166287242Y-117590726D01*
X167163513Y-117954585D01*
X168112325Y-117955413D01*
X168989229Y-117593084D01*
X169660726Y-116922758D01*
X170024585Y-116046487D01*
X170024588Y-116042325D01*
X175414587Y-116042325D01*
X175776916Y-116919229D01*
X176447242Y-117590726D01*
X177323513Y-117954585D01*
X178272325Y-117955413D01*
X179149229Y-117593084D01*
X179820726Y-116922758D01*
X180184585Y-116046487D01*
X180185413Y-115097675D01*
X179823084Y-114220771D01*
X179152758Y-113549274D01*
X178276487Y-113185415D01*
X177327675Y-113184587D01*
X176450771Y-113546916D01*
X175779274Y-114217242D01*
X175415415Y-115093513D01*
X175414587Y-116042325D01*
X170024588Y-116042325D01*
X170025413Y-115097675D01*
X169663084Y-114220771D01*
X168992758Y-113549274D01*
X168116487Y-113185415D01*
X167167675Y-113184587D01*
X166290771Y-113546916D01*
X165619274Y-114217242D01*
X165255415Y-115093513D01*
X165254587Y-116042325D01*
X165227000Y-116042325D01*
X165227000Y-113082606D01*
X167729803Y-110579803D01*
X167757666Y-110537789D01*
X167767000Y-110490000D01*
X167767000Y-109590000D01*
X171172560Y-109590000D01*
X171172560Y-111390000D01*
X171216838Y-111625317D01*
X171355910Y-111841441D01*
X171568110Y-111986431D01*
X171820000Y-112037440D01*
X173620000Y-112037440D01*
X173855317Y-111993162D01*
X174071441Y-111854090D01*
X174216431Y-111641890D01*
X174220567Y-111621466D01*
X174389357Y-111790551D01*
X174953330Y-112024733D01*
X175563991Y-112025265D01*
X176128371Y-111792068D01*
X176560551Y-111360643D01*
X176794733Y-110796670D01*
X176795265Y-110186009D01*
X176562068Y-109621629D01*
X176130643Y-109189449D01*
X175566670Y-108955267D01*
X174956009Y-108954735D01*
X174391629Y-109187932D01*
X174223387Y-109355880D01*
X174223162Y-109354683D01*
X174084090Y-109138559D01*
X173871890Y-108993569D01*
X173620000Y-108942560D01*
X171820000Y-108942560D01*
X171584683Y-108986838D01*
X171368559Y-109125910D01*
X171223569Y-109338110D01*
X171172560Y-109590000D01*
X167767000Y-109590000D01*
X167767000Y-104864679D01*
X168783000Y-104864679D01*
X168783000Y-105955321D01*
X168889340Y-106489930D01*
X169192172Y-106943149D01*
X169645391Y-107245981D01*
X170180000Y-107352321D01*
X170714609Y-107245981D01*
X171167828Y-106943149D01*
X171450000Y-106520850D01*
X171732172Y-106943149D01*
X172185391Y-107245981D01*
X172720000Y-107352321D01*
X173254609Y-107245981D01*
X173707828Y-106943149D01*
X173990000Y-106520850D01*
X174272172Y-106943149D01*
X174725391Y-107245981D01*
X175260000Y-107352321D01*
X175794609Y-107245981D01*
X176247828Y-106943149D01*
X176550660Y-106489930D01*
X176657000Y-105955321D01*
X176657000Y-104864679D01*
X176550660Y-104330070D01*
X176247828Y-103876851D01*
X175794609Y-103574019D01*
X175260000Y-103467679D01*
X174725391Y-103574019D01*
X174272172Y-103876851D01*
X173990000Y-104299150D01*
X173707828Y-103876851D01*
X173254609Y-103574019D01*
X172720000Y-103467679D01*
X172185391Y-103574019D01*
X171732172Y-103876851D01*
X171450000Y-104299150D01*
X171167828Y-103876851D01*
X170714609Y-103574019D01*
X170180000Y-103467679D01*
X169645391Y-103574019D01*
X169192172Y-103876851D01*
X168889340Y-104330070D01*
X168783000Y-104864679D01*
X167767000Y-104864679D01*
X167767000Y-87757000D01*
X168774000Y-87757000D01*
X168774000Y-88256000D01*
X168929626Y-88784386D01*
X169275610Y-89212995D01*
X169759280Y-89476576D01*
X169835516Y-89492145D01*
X170053000Y-89369767D01*
X170053000Y-87757000D01*
X168774000Y-87757000D01*
X167767000Y-87757000D01*
X167767000Y-87682606D01*
X168911103Y-86538503D01*
X168774000Y-87004000D01*
X168774000Y-87004000D01*
G37*
X168774000Y-87004000D02*
X168774000Y-87503000D01*
X170053000Y-87503000D01*
X170053000Y-87483000D01*
X170307000Y-87483000D01*
X170307000Y-87503000D01*
X170327000Y-87503000D01*
X170327000Y-87757000D01*
X170307000Y-87757000D01*
X170307000Y-89369767D01*
X170524484Y-89492145D01*
X170600720Y-89476576D01*
X171084390Y-89212995D01*
X171430374Y-88784386D01*
X171445278Y-88733783D01*
X171732172Y-89163149D01*
X172185391Y-89465981D01*
X172720000Y-89572321D01*
X173254609Y-89465981D01*
X173707828Y-89163149D01*
X173990000Y-88740850D01*
X174272172Y-89163149D01*
X174725391Y-89465981D01*
X175260000Y-89572321D01*
X175794609Y-89465981D01*
X176247828Y-89163149D01*
X176403000Y-88930918D01*
X176403000Y-90117394D01*
X175170197Y-91350197D01*
X175142334Y-91392211D01*
X175133000Y-91440000D01*
X175133000Y-95250000D01*
X175143006Y-95299410D01*
X175170197Y-95339803D01*
X177710197Y-97879803D01*
X177752211Y-97907666D01*
X177800000Y-97917000D01*
X184023000Y-97917000D01*
X184023000Y-110437394D01*
X181520197Y-112940197D01*
X181492334Y-112982211D01*
X181483000Y-113030000D01*
X181483000Y-119965000D01*
X165227000Y-119965000D01*
X165227000Y-116042325D01*
X165254587Y-116042325D01*
X165616916Y-116919229D01*
X166287242Y-117590726D01*
X167163513Y-117954585D01*
X168112325Y-117955413D01*
X168989229Y-117593084D01*
X169660726Y-116922758D01*
X170024585Y-116046487D01*
X170024588Y-116042325D01*
X175414587Y-116042325D01*
X175776916Y-116919229D01*
X176447242Y-117590726D01*
X177323513Y-117954585D01*
X178272325Y-117955413D01*
X179149229Y-117593084D01*
X179820726Y-116922758D01*
X180184585Y-116046487D01*
X180185413Y-115097675D01*
X179823084Y-114220771D01*
X179152758Y-113549274D01*
X178276487Y-113185415D01*
X177327675Y-113184587D01*
X176450771Y-113546916D01*
X175779274Y-114217242D01*
X175415415Y-115093513D01*
X175414587Y-116042325D01*
X170024588Y-116042325D01*
X170025413Y-115097675D01*
X169663084Y-114220771D01*
X168992758Y-113549274D01*
X168116487Y-113185415D01*
X167167675Y-113184587D01*
X166290771Y-113546916D01*
X165619274Y-114217242D01*
X165255415Y-115093513D01*
X165254587Y-116042325D01*
X165227000Y-116042325D01*
X165227000Y-113082606D01*
X167729803Y-110579803D01*
X167757666Y-110537789D01*
X167767000Y-110490000D01*
X167767000Y-109590000D01*
X171172560Y-109590000D01*
X171172560Y-111390000D01*
X171216838Y-111625317D01*
X171355910Y-111841441D01*
X171568110Y-111986431D01*
X171820000Y-112037440D01*
X173620000Y-112037440D01*
X173855317Y-111993162D01*
X174071441Y-111854090D01*
X174216431Y-111641890D01*
X174220567Y-111621466D01*
X174389357Y-111790551D01*
X174953330Y-112024733D01*
X175563991Y-112025265D01*
X176128371Y-111792068D01*
X176560551Y-111360643D01*
X176794733Y-110796670D01*
X176795265Y-110186009D01*
X176562068Y-109621629D01*
X176130643Y-109189449D01*
X175566670Y-108955267D01*
X174956009Y-108954735D01*
X174391629Y-109187932D01*
X174223387Y-109355880D01*
X174223162Y-109354683D01*
X174084090Y-109138559D01*
X173871890Y-108993569D01*
X173620000Y-108942560D01*
X171820000Y-108942560D01*
X171584683Y-108986838D01*
X171368559Y-109125910D01*
X171223569Y-109338110D01*
X171172560Y-109590000D01*
X167767000Y-109590000D01*
X167767000Y-104864679D01*
X168783000Y-104864679D01*
X168783000Y-105955321D01*
X168889340Y-106489930D01*
X169192172Y-106943149D01*
X169645391Y-107245981D01*
X170180000Y-107352321D01*
X170714609Y-107245981D01*
X171167828Y-106943149D01*
X171450000Y-106520850D01*
X171732172Y-106943149D01*
X172185391Y-107245981D01*
X172720000Y-107352321D01*
X173254609Y-107245981D01*
X173707828Y-106943149D01*
X173990000Y-106520850D01*
X174272172Y-106943149D01*
X174725391Y-107245981D01*
X175260000Y-107352321D01*
X175794609Y-107245981D01*
X176247828Y-106943149D01*
X176550660Y-106489930D01*
X176657000Y-105955321D01*
X176657000Y-104864679D01*
X176550660Y-104330070D01*
X176247828Y-103876851D01*
X175794609Y-103574019D01*
X175260000Y-103467679D01*
X174725391Y-103574019D01*
X174272172Y-103876851D01*
X173990000Y-104299150D01*
X173707828Y-103876851D01*
X173254609Y-103574019D01*
X172720000Y-103467679D01*
X172185391Y-103574019D01*
X171732172Y-103876851D01*
X171450000Y-104299150D01*
X171167828Y-103876851D01*
X170714609Y-103574019D01*
X170180000Y-103467679D01*
X169645391Y-103574019D01*
X169192172Y-103876851D01*
X168889340Y-104330070D01*
X168783000Y-104864679D01*
X167767000Y-104864679D01*
X167767000Y-87757000D01*
X168774000Y-87757000D01*
X168774000Y-88256000D01*
X168929626Y-88784386D01*
X169275610Y-89212995D01*
X169759280Y-89476576D01*
X169835516Y-89492145D01*
X170053000Y-89369767D01*
X170053000Y-87757000D01*
X168774000Y-87757000D01*
X167767000Y-87757000D01*
X167767000Y-87682606D01*
X168911103Y-86538503D01*
X168774000Y-87004000D01*
G36*
X186554000Y-87004000D02*
X186554000Y-87503000D01*
X187833000Y-87503000D01*
X187833000Y-87483000D01*
X188087000Y-87483000D01*
X188087000Y-87503000D01*
X188107000Y-87503000D01*
X188107000Y-87757000D01*
X188087000Y-87757000D01*
X188087000Y-89369767D01*
X188304484Y-89492145D01*
X188380720Y-89476576D01*
X188864390Y-89212995D01*
X189210374Y-88784386D01*
X189225278Y-88733783D01*
X189512172Y-89163149D01*
X189965391Y-89465981D01*
X190500000Y-89572321D01*
X191034609Y-89465981D01*
X191487828Y-89163149D01*
X191770000Y-88740850D01*
X192052172Y-89163149D01*
X192505391Y-89465981D01*
X193040000Y-89572321D01*
X193574609Y-89465981D01*
X194027828Y-89163149D01*
X194183000Y-88930918D01*
X194183000Y-90117394D01*
X192950197Y-91350197D01*
X192922334Y-91392211D01*
X192913000Y-91440000D01*
X192913000Y-95250000D01*
X192923006Y-95299410D01*
X192950197Y-95339803D01*
X195490197Y-97879803D01*
X195532211Y-97907666D01*
X195580000Y-97917000D01*
X201803000Y-97917000D01*
X201803000Y-110437394D01*
X199300197Y-112940197D01*
X199272334Y-112982211D01*
X199263000Y-113030000D01*
X199263000Y-119965000D01*
X183007000Y-119965000D01*
X183007000Y-116042325D01*
X183034587Y-116042325D01*
X183396916Y-116919229D01*
X184067242Y-117590726D01*
X184943513Y-117954585D01*
X185892325Y-117955413D01*
X186769229Y-117593084D01*
X187440726Y-116922758D01*
X187804585Y-116046487D01*
X187804588Y-116042325D01*
X193194587Y-116042325D01*
X193556916Y-116919229D01*
X194227242Y-117590726D01*
X195103513Y-117954585D01*
X196052325Y-117955413D01*
X196929229Y-117593084D01*
X197600726Y-116922758D01*
X197964585Y-116046487D01*
X197965413Y-115097675D01*
X197603084Y-114220771D01*
X196932758Y-113549274D01*
X196056487Y-113185415D01*
X195107675Y-113184587D01*
X194230771Y-113546916D01*
X193559274Y-114217242D01*
X193195415Y-115093513D01*
X193194587Y-116042325D01*
X187804588Y-116042325D01*
X187805413Y-115097675D01*
X187443084Y-114220771D01*
X186772758Y-113549274D01*
X185896487Y-113185415D01*
X184947675Y-113184587D01*
X184070771Y-113546916D01*
X183399274Y-114217242D01*
X183035415Y-115093513D01*
X183034587Y-116042325D01*
X183007000Y-116042325D01*
X183007000Y-113082606D01*
X185509803Y-110579803D01*
X185537666Y-110537789D01*
X185547000Y-110490000D01*
X185547000Y-109590000D01*
X188952560Y-109590000D01*
X188952560Y-111390000D01*
X188996838Y-111625317D01*
X189135910Y-111841441D01*
X189348110Y-111986431D01*
X189600000Y-112037440D01*
X191400000Y-112037440D01*
X191635317Y-111993162D01*
X191851441Y-111854090D01*
X191996431Y-111641890D01*
X192000567Y-111621466D01*
X192169357Y-111790551D01*
X192733330Y-112024733D01*
X193343991Y-112025265D01*
X193908371Y-111792068D01*
X194340551Y-111360643D01*
X194574733Y-110796670D01*
X194575265Y-110186009D01*
X194342068Y-109621629D01*
X193910643Y-109189449D01*
X193346670Y-108955267D01*
X192736009Y-108954735D01*
X192171629Y-109187932D01*
X192003387Y-109355880D01*
X192003162Y-109354683D01*
X191864090Y-109138559D01*
X191651890Y-108993569D01*
X191400000Y-108942560D01*
X189600000Y-108942560D01*
X189364683Y-108986838D01*
X189148559Y-109125910D01*
X189003569Y-109338110D01*
X188952560Y-109590000D01*
X185547000Y-109590000D01*
X185547000Y-104864679D01*
X186563000Y-104864679D01*
X186563000Y-105955321D01*
X186669340Y-106489930D01*
X186972172Y-106943149D01*
X187425391Y-107245981D01*
X187960000Y-107352321D01*
X188494609Y-107245981D01*
X188947828Y-106943149D01*
X189230000Y-106520850D01*
X189512172Y-106943149D01*
X189965391Y-107245981D01*
X190500000Y-107352321D01*
X191034609Y-107245981D01*
X191487828Y-106943149D01*
X191770000Y-106520850D01*
X192052172Y-106943149D01*
X192505391Y-107245981D01*
X193040000Y-107352321D01*
X193574609Y-107245981D01*
X194027828Y-106943149D01*
X194330660Y-106489930D01*
X194437000Y-105955321D01*
X194437000Y-104864679D01*
X194330660Y-104330070D01*
X194027828Y-103876851D01*
X193574609Y-103574019D01*
X193040000Y-103467679D01*
X192505391Y-103574019D01*
X192052172Y-103876851D01*
X191770000Y-104299150D01*
X191487828Y-103876851D01*
X191034609Y-103574019D01*
X190500000Y-103467679D01*
X189965391Y-103574019D01*
X189512172Y-103876851D01*
X189230000Y-104299150D01*
X188947828Y-103876851D01*
X188494609Y-103574019D01*
X187960000Y-103467679D01*
X187425391Y-103574019D01*
X186972172Y-103876851D01*
X186669340Y-104330070D01*
X186563000Y-104864679D01*
X185547000Y-104864679D01*
X185547000Y-87757000D01*
X186554000Y-87757000D01*
X186554000Y-88256000D01*
X186709626Y-88784386D01*
X187055610Y-89212995D01*
X187539280Y-89476576D01*
X187615516Y-89492145D01*
X187833000Y-89369767D01*
X187833000Y-87757000D01*
X186554000Y-87757000D01*
X185547000Y-87757000D01*
X185547000Y-87682606D01*
X186691103Y-86538503D01*
X186554000Y-87004000D01*
X186554000Y-87004000D01*
G37*
X186554000Y-87004000D02*
X186554000Y-87503000D01*
X187833000Y-87503000D01*
X187833000Y-87483000D01*
X188087000Y-87483000D01*
X188087000Y-87503000D01*
X188107000Y-87503000D01*
X188107000Y-87757000D01*
X188087000Y-87757000D01*
X188087000Y-89369767D01*
X188304484Y-89492145D01*
X188380720Y-89476576D01*
X188864390Y-89212995D01*
X189210374Y-88784386D01*
X189225278Y-88733783D01*
X189512172Y-89163149D01*
X189965391Y-89465981D01*
X190500000Y-89572321D01*
X191034609Y-89465981D01*
X191487828Y-89163149D01*
X191770000Y-88740850D01*
X192052172Y-89163149D01*
X192505391Y-89465981D01*
X193040000Y-89572321D01*
X193574609Y-89465981D01*
X194027828Y-89163149D01*
X194183000Y-88930918D01*
X194183000Y-90117394D01*
X192950197Y-91350197D01*
X192922334Y-91392211D01*
X192913000Y-91440000D01*
X192913000Y-95250000D01*
X192923006Y-95299410D01*
X192950197Y-95339803D01*
X195490197Y-97879803D01*
X195532211Y-97907666D01*
X195580000Y-97917000D01*
X201803000Y-97917000D01*
X201803000Y-110437394D01*
X199300197Y-112940197D01*
X199272334Y-112982211D01*
X199263000Y-113030000D01*
X199263000Y-119965000D01*
X183007000Y-119965000D01*
X183007000Y-116042325D01*
X183034587Y-116042325D01*
X183396916Y-116919229D01*
X184067242Y-117590726D01*
X184943513Y-117954585D01*
X185892325Y-117955413D01*
X186769229Y-117593084D01*
X187440726Y-116922758D01*
X187804585Y-116046487D01*
X187804588Y-116042325D01*
X193194587Y-116042325D01*
X193556916Y-116919229D01*
X194227242Y-117590726D01*
X195103513Y-117954585D01*
X196052325Y-117955413D01*
X196929229Y-117593084D01*
X197600726Y-116922758D01*
X197964585Y-116046487D01*
X197965413Y-115097675D01*
X197603084Y-114220771D01*
X196932758Y-113549274D01*
X196056487Y-113185415D01*
X195107675Y-113184587D01*
X194230771Y-113546916D01*
X193559274Y-114217242D01*
X193195415Y-115093513D01*
X193194587Y-116042325D01*
X187804588Y-116042325D01*
X187805413Y-115097675D01*
X187443084Y-114220771D01*
X186772758Y-113549274D01*
X185896487Y-113185415D01*
X184947675Y-113184587D01*
X184070771Y-113546916D01*
X183399274Y-114217242D01*
X183035415Y-115093513D01*
X183034587Y-116042325D01*
X183007000Y-116042325D01*
X183007000Y-113082606D01*
X185509803Y-110579803D01*
X185537666Y-110537789D01*
X185547000Y-110490000D01*
X185547000Y-109590000D01*
X188952560Y-109590000D01*
X188952560Y-111390000D01*
X188996838Y-111625317D01*
X189135910Y-111841441D01*
X189348110Y-111986431D01*
X189600000Y-112037440D01*
X191400000Y-112037440D01*
X191635317Y-111993162D01*
X191851441Y-111854090D01*
X191996431Y-111641890D01*
X192000567Y-111621466D01*
X192169357Y-111790551D01*
X192733330Y-112024733D01*
X193343991Y-112025265D01*
X193908371Y-111792068D01*
X194340551Y-111360643D01*
X194574733Y-110796670D01*
X194575265Y-110186009D01*
X194342068Y-109621629D01*
X193910643Y-109189449D01*
X193346670Y-108955267D01*
X192736009Y-108954735D01*
X192171629Y-109187932D01*
X192003387Y-109355880D01*
X192003162Y-109354683D01*
X191864090Y-109138559D01*
X191651890Y-108993569D01*
X191400000Y-108942560D01*
X189600000Y-108942560D01*
X189364683Y-108986838D01*
X189148559Y-109125910D01*
X189003569Y-109338110D01*
X188952560Y-109590000D01*
X185547000Y-109590000D01*
X185547000Y-104864679D01*
X186563000Y-104864679D01*
X186563000Y-105955321D01*
X186669340Y-106489930D01*
X186972172Y-106943149D01*
X187425391Y-107245981D01*
X187960000Y-107352321D01*
X188494609Y-107245981D01*
X188947828Y-106943149D01*
X189230000Y-106520850D01*
X189512172Y-106943149D01*
X189965391Y-107245981D01*
X190500000Y-107352321D01*
X191034609Y-107245981D01*
X191487828Y-106943149D01*
X191770000Y-106520850D01*
X192052172Y-106943149D01*
X192505391Y-107245981D01*
X193040000Y-107352321D01*
X193574609Y-107245981D01*
X194027828Y-106943149D01*
X194330660Y-106489930D01*
X194437000Y-105955321D01*
X194437000Y-104864679D01*
X194330660Y-104330070D01*
X194027828Y-103876851D01*
X193574609Y-103574019D01*
X193040000Y-103467679D01*
X192505391Y-103574019D01*
X192052172Y-103876851D01*
X191770000Y-104299150D01*
X191487828Y-103876851D01*
X191034609Y-103574019D01*
X190500000Y-103467679D01*
X189965391Y-103574019D01*
X189512172Y-103876851D01*
X189230000Y-104299150D01*
X188947828Y-103876851D01*
X188494609Y-103574019D01*
X187960000Y-103467679D01*
X187425391Y-103574019D01*
X186972172Y-103876851D01*
X186669340Y-104330070D01*
X186563000Y-104864679D01*
X185547000Y-104864679D01*
X185547000Y-87757000D01*
X186554000Y-87757000D01*
X186554000Y-88256000D01*
X186709626Y-88784386D01*
X187055610Y-89212995D01*
X187539280Y-89476576D01*
X187615516Y-89492145D01*
X187833000Y-89369767D01*
X187833000Y-87757000D01*
X186554000Y-87757000D01*
X185547000Y-87757000D01*
X185547000Y-87682606D01*
X186691103Y-86538503D01*
X186554000Y-87004000D01*
G36*
X217501573Y-86562838D02*
X218233310Y-87295853D01*
X219189860Y-87693047D01*
X220225596Y-87693951D01*
X221182838Y-87298427D01*
X221565000Y-86916931D01*
X221565000Y-111203118D01*
X221186690Y-110824147D01*
X220230140Y-110426953D01*
X219194404Y-110426049D01*
X218237162Y-110821573D01*
X217504147Y-111553310D01*
X217106953Y-112509860D01*
X217106049Y-113545596D01*
X217501573Y-114502838D01*
X218233310Y-115235853D01*
X219189860Y-115633047D01*
X220225596Y-115633951D01*
X221182838Y-115238427D01*
X221565000Y-114856931D01*
X221565000Y-115286264D01*
X219225632Y-117625632D01*
X219077143Y-117847862D01*
X219025000Y-118110000D01*
X219025000Y-119965000D01*
X200787000Y-119965000D01*
X200787000Y-116042325D01*
X200814587Y-116042325D01*
X201176916Y-116919229D01*
X201847242Y-117590726D01*
X202723513Y-117954585D01*
X203672325Y-117955413D01*
X204549229Y-117593084D01*
X205220726Y-116922758D01*
X205584585Y-116046487D01*
X205584588Y-116042325D01*
X210974587Y-116042325D01*
X211336916Y-116919229D01*
X212007242Y-117590726D01*
X212883513Y-117954585D01*
X213832325Y-117955413D01*
X214709229Y-117593084D01*
X215380726Y-116922758D01*
X215744585Y-116046487D01*
X215745413Y-115097675D01*
X215383084Y-114220771D01*
X214712758Y-113549274D01*
X213836487Y-113185415D01*
X212887675Y-113184587D01*
X212010771Y-113546916D01*
X211339274Y-114217242D01*
X210975415Y-115093513D01*
X210974587Y-116042325D01*
X205584588Y-116042325D01*
X205585413Y-115097675D01*
X205223084Y-114220771D01*
X204552758Y-113549274D01*
X203676487Y-113185415D01*
X202727675Y-113184587D01*
X201850771Y-113546916D01*
X201179274Y-114217242D01*
X200815415Y-115093513D01*
X200814587Y-116042325D01*
X200787000Y-116042325D01*
X200787000Y-113082606D01*
X203289803Y-110579803D01*
X203317666Y-110537789D01*
X203327000Y-110490000D01*
X203327000Y-109590000D01*
X206732560Y-109590000D01*
X206732560Y-111390000D01*
X206776838Y-111625317D01*
X206915910Y-111841441D01*
X207128110Y-111986431D01*
X207380000Y-112037440D01*
X209180000Y-112037440D01*
X209415317Y-111993162D01*
X209631441Y-111854090D01*
X209776431Y-111641890D01*
X209780567Y-111621466D01*
X209949357Y-111790551D01*
X210513330Y-112024733D01*
X211123991Y-112025265D01*
X211688371Y-111792068D01*
X212120551Y-111360643D01*
X212354733Y-110796670D01*
X212355265Y-110186009D01*
X212122068Y-109621629D01*
X211690643Y-109189449D01*
X211126670Y-108955267D01*
X210516009Y-108954735D01*
X209951629Y-109187932D01*
X209783387Y-109355880D01*
X209783162Y-109354683D01*
X209644090Y-109138559D01*
X209431890Y-108993569D01*
X209180000Y-108942560D01*
X207380000Y-108942560D01*
X207144683Y-108986838D01*
X206928559Y-109125910D01*
X206783569Y-109338110D01*
X206732560Y-109590000D01*
X203327000Y-109590000D01*
X203327000Y-104864679D01*
X204343000Y-104864679D01*
X204343000Y-105955321D01*
X204449340Y-106489930D01*
X204752172Y-106943149D01*
X205205391Y-107245981D01*
X205740000Y-107352321D01*
X206274609Y-107245981D01*
X206727828Y-106943149D01*
X207010000Y-106520850D01*
X207292172Y-106943149D01*
X207745391Y-107245981D01*
X208280000Y-107352321D01*
X208814609Y-107245981D01*
X209267828Y-106943149D01*
X209550000Y-106520850D01*
X209832172Y-106943149D01*
X210285391Y-107245981D01*
X210820000Y-107352321D01*
X211354609Y-107245981D01*
X211807828Y-106943149D01*
X212110660Y-106489930D01*
X212217000Y-105955321D01*
X212217000Y-104864679D01*
X212110660Y-104330070D01*
X211807828Y-103876851D01*
X211354609Y-103574019D01*
X210820000Y-103467679D01*
X210285391Y-103574019D01*
X209832172Y-103876851D01*
X209550000Y-104299150D01*
X209267828Y-103876851D01*
X208814609Y-103574019D01*
X208280000Y-103467679D01*
X207745391Y-103574019D01*
X207292172Y-103876851D01*
X207010000Y-104299150D01*
X206727828Y-103876851D01*
X206274609Y-103574019D01*
X205740000Y-103467679D01*
X205205391Y-103574019D01*
X204752172Y-103876851D01*
X204449340Y-104330070D01*
X204343000Y-104864679D01*
X203327000Y-104864679D01*
X203327000Y-87757000D01*
X204334000Y-87757000D01*
X204334000Y-88256000D01*
X204489626Y-88784386D01*
X204835610Y-89212995D01*
X205319280Y-89476576D01*
X205395516Y-89492145D01*
X205613000Y-89369767D01*
X205613000Y-87757000D01*
X204334000Y-87757000D01*
X203327000Y-87757000D01*
X203327000Y-87682606D01*
X204471103Y-86538503D01*
X204334000Y-87004000D01*
X204334000Y-87503000D01*
X205613000Y-87503000D01*
X205613000Y-87483000D01*
X205867000Y-87483000D01*
X205867000Y-87503000D01*
X205887000Y-87503000D01*
X205887000Y-87757000D01*
X205867000Y-87757000D01*
X205867000Y-89369767D01*
X206084484Y-89492145D01*
X206160720Y-89476576D01*
X206644390Y-89212995D01*
X206990374Y-88784386D01*
X207005278Y-88733783D01*
X207292172Y-89163149D01*
X207745391Y-89465981D01*
X208280000Y-89572321D01*
X208814609Y-89465981D01*
X209267828Y-89163149D01*
X209550000Y-88740850D01*
X209832172Y-89163149D01*
X210285391Y-89465981D01*
X210820000Y-89572321D01*
X211341881Y-89468513D01*
X210730197Y-90080197D01*
X210702334Y-90122211D01*
X210693000Y-90170000D01*
X210693000Y-95250000D01*
X210703006Y-95299410D01*
X210730197Y-95339803D01*
X213270197Y-97879803D01*
X213312211Y-97907666D01*
X213360000Y-97917000D01*
X219710000Y-97917000D01*
X219759410Y-97906994D01*
X219801035Y-97878553D01*
X219828315Y-97836159D01*
X219837000Y-97790000D01*
X219837000Y-90170000D01*
X219826994Y-90120590D01*
X219799803Y-90080197D01*
X217297000Y-87577394D01*
X217297000Y-86067733D01*
X217501573Y-86562838D01*
X217501573Y-86562838D01*
G37*
X217501573Y-86562838D02*
X218233310Y-87295853D01*
X219189860Y-87693047D01*
X220225596Y-87693951D01*
X221182838Y-87298427D01*
X221565000Y-86916931D01*
X221565000Y-111203118D01*
X221186690Y-110824147D01*
X220230140Y-110426953D01*
X219194404Y-110426049D01*
X218237162Y-110821573D01*
X217504147Y-111553310D01*
X217106953Y-112509860D01*
X217106049Y-113545596D01*
X217501573Y-114502838D01*
X218233310Y-115235853D01*
X219189860Y-115633047D01*
X220225596Y-115633951D01*
X221182838Y-115238427D01*
X221565000Y-114856931D01*
X221565000Y-115286264D01*
X219225632Y-117625632D01*
X219077143Y-117847862D01*
X219025000Y-118110000D01*
X219025000Y-119965000D01*
X200787000Y-119965000D01*
X200787000Y-116042325D01*
X200814587Y-116042325D01*
X201176916Y-116919229D01*
X201847242Y-117590726D01*
X202723513Y-117954585D01*
X203672325Y-117955413D01*
X204549229Y-117593084D01*
X205220726Y-116922758D01*
X205584585Y-116046487D01*
X205584588Y-116042325D01*
X210974587Y-116042325D01*
X211336916Y-116919229D01*
X212007242Y-117590726D01*
X212883513Y-117954585D01*
X213832325Y-117955413D01*
X214709229Y-117593084D01*
X215380726Y-116922758D01*
X215744585Y-116046487D01*
X215745413Y-115097675D01*
X215383084Y-114220771D01*
X214712758Y-113549274D01*
X213836487Y-113185415D01*
X212887675Y-113184587D01*
X212010771Y-113546916D01*
X211339274Y-114217242D01*
X210975415Y-115093513D01*
X210974587Y-116042325D01*
X205584588Y-116042325D01*
X205585413Y-115097675D01*
X205223084Y-114220771D01*
X204552758Y-113549274D01*
X203676487Y-113185415D01*
X202727675Y-113184587D01*
X201850771Y-113546916D01*
X201179274Y-114217242D01*
X200815415Y-115093513D01*
X200814587Y-116042325D01*
X200787000Y-116042325D01*
X200787000Y-113082606D01*
X203289803Y-110579803D01*
X203317666Y-110537789D01*
X203327000Y-110490000D01*
X203327000Y-109590000D01*
X206732560Y-109590000D01*
X206732560Y-111390000D01*
X206776838Y-111625317D01*
X206915910Y-111841441D01*
X207128110Y-111986431D01*
X207380000Y-112037440D01*
X209180000Y-112037440D01*
X209415317Y-111993162D01*
X209631441Y-111854090D01*
X209776431Y-111641890D01*
X209780567Y-111621466D01*
X209949357Y-111790551D01*
X210513330Y-112024733D01*
X211123991Y-112025265D01*
X211688371Y-111792068D01*
X212120551Y-111360643D01*
X212354733Y-110796670D01*
X212355265Y-110186009D01*
X212122068Y-109621629D01*
X211690643Y-109189449D01*
X211126670Y-108955267D01*
X210516009Y-108954735D01*
X209951629Y-109187932D01*
X209783387Y-109355880D01*
X209783162Y-109354683D01*
X209644090Y-109138559D01*
X209431890Y-108993569D01*
X209180000Y-108942560D01*
X207380000Y-108942560D01*
X207144683Y-108986838D01*
X206928559Y-109125910D01*
X206783569Y-109338110D01*
X206732560Y-109590000D01*
X203327000Y-109590000D01*
X203327000Y-104864679D01*
X204343000Y-104864679D01*
X204343000Y-105955321D01*
X204449340Y-106489930D01*
X204752172Y-106943149D01*
X205205391Y-107245981D01*
X205740000Y-107352321D01*
X206274609Y-107245981D01*
X206727828Y-106943149D01*
X207010000Y-106520850D01*
X207292172Y-106943149D01*
X207745391Y-107245981D01*
X208280000Y-107352321D01*
X208814609Y-107245981D01*
X209267828Y-106943149D01*
X209550000Y-106520850D01*
X209832172Y-106943149D01*
X210285391Y-107245981D01*
X210820000Y-107352321D01*
X211354609Y-107245981D01*
X211807828Y-106943149D01*
X212110660Y-106489930D01*
X212217000Y-105955321D01*
X212217000Y-104864679D01*
X212110660Y-104330070D01*
X211807828Y-103876851D01*
X211354609Y-103574019D01*
X210820000Y-103467679D01*
X210285391Y-103574019D01*
X209832172Y-103876851D01*
X209550000Y-104299150D01*
X209267828Y-103876851D01*
X208814609Y-103574019D01*
X208280000Y-103467679D01*
X207745391Y-103574019D01*
X207292172Y-103876851D01*
X207010000Y-104299150D01*
X206727828Y-103876851D01*
X206274609Y-103574019D01*
X205740000Y-103467679D01*
X205205391Y-103574019D01*
X204752172Y-103876851D01*
X204449340Y-104330070D01*
X204343000Y-104864679D01*
X203327000Y-104864679D01*
X203327000Y-87757000D01*
X204334000Y-87757000D01*
X204334000Y-88256000D01*
X204489626Y-88784386D01*
X204835610Y-89212995D01*
X205319280Y-89476576D01*
X205395516Y-89492145D01*
X205613000Y-89369767D01*
X205613000Y-87757000D01*
X204334000Y-87757000D01*
X203327000Y-87757000D01*
X203327000Y-87682606D01*
X204471103Y-86538503D01*
X204334000Y-87004000D01*
X204334000Y-87503000D01*
X205613000Y-87503000D01*
X205613000Y-87483000D01*
X205867000Y-87483000D01*
X205867000Y-87503000D01*
X205887000Y-87503000D01*
X205887000Y-87757000D01*
X205867000Y-87757000D01*
X205867000Y-89369767D01*
X206084484Y-89492145D01*
X206160720Y-89476576D01*
X206644390Y-89212995D01*
X206990374Y-88784386D01*
X207005278Y-88733783D01*
X207292172Y-89163149D01*
X207745391Y-89465981D01*
X208280000Y-89572321D01*
X208814609Y-89465981D01*
X209267828Y-89163149D01*
X209550000Y-88740850D01*
X209832172Y-89163149D01*
X210285391Y-89465981D01*
X210820000Y-89572321D01*
X211341881Y-89468513D01*
X210730197Y-90080197D01*
X210702334Y-90122211D01*
X210693000Y-90170000D01*
X210693000Y-95250000D01*
X210703006Y-95299410D01*
X210730197Y-95339803D01*
X213270197Y-97879803D01*
X213312211Y-97907666D01*
X213360000Y-97917000D01*
X219710000Y-97917000D01*
X219759410Y-97906994D01*
X219801035Y-97878553D01*
X219828315Y-97836159D01*
X219837000Y-97790000D01*
X219837000Y-90170000D01*
X219826994Y-90120590D01*
X219799803Y-90080197D01*
X217297000Y-87577394D01*
X217297000Y-86067733D01*
X217501573Y-86562838D01*
G36*
X89234147Y-68373310D02*
X88836953Y-69329860D01*
X88836049Y-70365596D01*
X89231573Y-71322838D01*
X89963310Y-72055853D01*
X90919860Y-72453047D01*
X91955596Y-72453951D01*
X92912838Y-72058427D01*
X93645853Y-71326690D01*
X93911166Y-70687744D01*
X93959340Y-70929930D01*
X94262172Y-71383149D01*
X94488000Y-71534043D01*
X94488000Y-71755000D01*
X94546004Y-72046605D01*
X94702076Y-72280182D01*
X94711185Y-72293815D01*
X95346185Y-72928816D01*
X95493244Y-73027077D01*
X95593395Y-73093996D01*
X95885000Y-73152000D01*
X111633000Y-73152000D01*
X111633000Y-75181358D01*
X111480378Y-75333714D01*
X111315687Y-75730332D01*
X111315313Y-76159784D01*
X111384405Y-76327000D01*
X109349642Y-76327000D01*
X109197286Y-76174378D01*
X108800668Y-76009687D01*
X108371216Y-76009313D01*
X107974311Y-76173311D01*
X107670378Y-76476714D01*
X107505687Y-76873332D01*
X107505313Y-77302784D01*
X107669311Y-77699689D01*
X107972714Y-78003622D01*
X108369332Y-78168313D01*
X108798784Y-78168687D01*
X109195689Y-78004689D01*
X109349646Y-77851000D01*
X113984370Y-77851000D01*
X113666869Y-78168501D01*
X113451216Y-78168313D01*
X113054311Y-78332311D01*
X112900354Y-78486000D01*
X104902000Y-78486000D01*
X104610395Y-78544004D01*
X104511377Y-78610166D01*
X104363185Y-78709184D01*
X104141868Y-78930501D01*
X103926216Y-78930313D01*
X103529311Y-79094311D01*
X103225378Y-79397714D01*
X103165855Y-79541060D01*
X103101286Y-79476378D01*
X102997000Y-79433074D01*
X102997000Y-75694642D01*
X103149622Y-75542286D01*
X103314313Y-75145668D01*
X103314687Y-74716216D01*
X103150689Y-74319311D01*
X102847286Y-74015378D01*
X102450668Y-73850687D01*
X102021216Y-73850313D01*
X101624311Y-74014311D01*
X101320378Y-74317714D01*
X101155687Y-74714332D01*
X101155313Y-75143784D01*
X101319311Y-75540689D01*
X101473000Y-75694646D01*
X101473000Y-80010000D01*
X101474729Y-80018694D01*
X101409687Y-80175332D01*
X101409313Y-80604784D01*
X101573311Y-81001689D01*
X101876714Y-81305622D01*
X102273332Y-81470313D01*
X102702784Y-81470687D01*
X103099689Y-81306689D01*
X103403622Y-81003286D01*
X103463145Y-80859940D01*
X103527714Y-80924622D01*
X103924332Y-81089313D01*
X104353784Y-81089687D01*
X104750689Y-80925689D01*
X104782403Y-80894031D01*
X104711687Y-81064332D01*
X104711313Y-81493784D01*
X104875311Y-81890689D01*
X105178714Y-82194622D01*
X105575332Y-82359313D01*
X105792872Y-82359502D01*
X107030185Y-83596816D01*
X107178377Y-83695834D01*
X107277395Y-83761996D01*
X107569000Y-83820000D01*
X131064000Y-83820000D01*
X131355605Y-83761996D01*
X131602815Y-83596815D01*
X136713630Y-78486000D01*
X150241000Y-78486000D01*
X150532605Y-78427996D01*
X150779815Y-78262815D01*
X150944996Y-78015605D01*
X151003000Y-77724000D01*
X151003000Y-76261630D01*
X152281843Y-74982788D01*
X152281649Y-75204901D01*
X152492531Y-75715274D01*
X152882672Y-76106096D01*
X153392676Y-76317869D01*
X153944901Y-76318351D01*
X154455274Y-76107469D01*
X154493590Y-76069220D01*
X157068185Y-78643816D01*
X157068188Y-78643818D01*
X158942370Y-80518000D01*
X151182606Y-80518000D01*
X149949803Y-79285197D01*
X149907789Y-79257334D01*
X149860000Y-79248000D01*
X138430000Y-79248000D01*
X138380590Y-79258006D01*
X138340197Y-79285197D01*
X132662394Y-84963000D01*
X90170000Y-84963000D01*
X90120590Y-84973006D01*
X90080197Y-85000197D01*
X79920197Y-95160197D01*
X79892334Y-95202211D01*
X79883000Y-95250000D01*
X79883000Y-106680000D01*
X79893006Y-106729410D01*
X79921447Y-106771035D01*
X79963841Y-106798315D01*
X80010000Y-106807000D01*
X136525000Y-106807000D01*
X136574410Y-106796994D01*
X136614803Y-106769803D01*
X137249803Y-106134803D01*
X137277666Y-106092789D01*
X137287000Y-106045000D01*
X137287000Y-98477606D01*
X137847606Y-97917000D01*
X144092394Y-97917000D01*
X144653000Y-98477606D01*
X144653000Y-112052267D01*
X144448427Y-111557162D01*
X143716690Y-110824147D01*
X142760140Y-110426953D01*
X141724404Y-110426049D01*
X140767162Y-110821573D01*
X140034147Y-111553310D01*
X139636953Y-112509860D01*
X139636049Y-113545596D01*
X140031573Y-114502838D01*
X140763310Y-115235853D01*
X141719860Y-115633047D01*
X142755596Y-115633951D01*
X143712838Y-115238427D01*
X144445853Y-114506690D01*
X144653000Y-114007824D01*
X144653000Y-115517394D01*
X142150197Y-118020197D01*
X142122334Y-118062211D01*
X142113000Y-118110000D01*
X142113000Y-119965000D01*
X140138994Y-119965000D01*
X140234609Y-119945981D01*
X140687828Y-119643149D01*
X140990660Y-119189930D01*
X141097000Y-118655321D01*
X141097000Y-117564679D01*
X140990660Y-117030070D01*
X140687828Y-116576851D01*
X140234609Y-116274019D01*
X139700000Y-116167679D01*
X139165391Y-116274019D01*
X138712172Y-116576851D01*
X138430000Y-116999150D01*
X138147828Y-116576851D01*
X137694609Y-116274019D01*
X137160000Y-116167679D01*
X136625391Y-116274019D01*
X136172172Y-116576851D01*
X135890000Y-116999150D01*
X135607828Y-116576851D01*
X135154609Y-116274019D01*
X134620000Y-116167679D01*
X134085391Y-116274019D01*
X133632172Y-116576851D01*
X133350000Y-116999150D01*
X133067828Y-116576851D01*
X132614609Y-116274019D01*
X132080000Y-116167679D01*
X131545391Y-116274019D01*
X131092172Y-116576851D01*
X130810000Y-116999150D01*
X130527828Y-116576851D01*
X130074609Y-116274019D01*
X129540000Y-116167679D01*
X129005391Y-116274019D01*
X128552172Y-116576851D01*
X128270000Y-116999150D01*
X127987828Y-116576851D01*
X127534609Y-116274019D01*
X127000000Y-116167679D01*
X126465391Y-116274019D01*
X126012172Y-116576851D01*
X125709340Y-117030070D01*
X125603000Y-117564679D01*
X125603000Y-118655321D01*
X125709340Y-119189930D01*
X126012172Y-119643149D01*
X126465391Y-119945981D01*
X126561006Y-119965000D01*
X122358994Y-119965000D01*
X122454609Y-119945981D01*
X122907828Y-119643149D01*
X123210660Y-119189930D01*
X123317000Y-118655321D01*
X123317000Y-117564679D01*
X123210660Y-117030070D01*
X122907828Y-116576851D01*
X122454609Y-116274019D01*
X121920000Y-116167679D01*
X121385391Y-116274019D01*
X120932172Y-116576851D01*
X120650000Y-116999150D01*
X120367828Y-116576851D01*
X119914609Y-116274019D01*
X119380000Y-116167679D01*
X118845391Y-116274019D01*
X118392172Y-116576851D01*
X118100670Y-117013113D01*
X118082059Y-116950059D01*
X117738026Y-116524370D01*
X117257277Y-116262740D01*
X117183070Y-116247780D01*
X116967000Y-116370280D01*
X116967000Y-117983000D01*
X116987000Y-117983000D01*
X116987000Y-118237000D01*
X116967000Y-118237000D01*
X116967000Y-118257000D01*
X116713000Y-118257000D01*
X116713000Y-118237000D01*
X116693000Y-118237000D01*
X116693000Y-117983000D01*
X116713000Y-117983000D01*
X116713000Y-116370280D01*
X116496930Y-116247780D01*
X116422723Y-116262740D01*
X115941974Y-116524370D01*
X115597941Y-116950059D01*
X115579330Y-117013113D01*
X115287828Y-116576851D01*
X114834609Y-116274019D01*
X114300000Y-116167679D01*
X113765391Y-116274019D01*
X113312172Y-116576851D01*
X113030000Y-116999150D01*
X112747828Y-116576851D01*
X112294609Y-116274019D01*
X111760000Y-116167679D01*
X111225391Y-116274019D01*
X110772172Y-116576851D01*
X110490000Y-116999150D01*
X110207828Y-116576851D01*
X109754609Y-116274019D01*
X109220000Y-116167679D01*
X108685391Y-116274019D01*
X108232172Y-116576851D01*
X107950000Y-116999150D01*
X107667828Y-116576851D01*
X107214609Y-116274019D01*
X106680000Y-116167679D01*
X106145391Y-116274019D01*
X105692172Y-116576851D01*
X105410000Y-116999150D01*
X105127828Y-116576851D01*
X104674609Y-116274019D01*
X104140000Y-116167679D01*
X103605391Y-116274019D01*
X103152172Y-116576851D01*
X102849340Y-117030070D01*
X102743000Y-117564679D01*
X102743000Y-118655321D01*
X102849340Y-119189930D01*
X103152172Y-119643149D01*
X103605391Y-119945981D01*
X103701006Y-119965000D01*
X91996882Y-119965000D01*
X92375853Y-119586690D01*
X92773047Y-118630140D01*
X92773951Y-117594404D01*
X92378427Y-116637162D01*
X91646690Y-115904147D01*
X90690140Y-115506953D01*
X89654404Y-115506049D01*
X88697162Y-115901573D01*
X87964147Y-116633310D01*
X87566953Y-117589860D01*
X87566049Y-118625596D01*
X87961573Y-119582838D01*
X88343069Y-119965000D01*
X76885000Y-119965000D01*
X76885000Y-67995000D01*
X89613118Y-67995000D01*
X89234147Y-68373310D01*
X89234147Y-68373310D01*
G37*
X89234147Y-68373310D02*
X88836953Y-69329860D01*
X88836049Y-70365596D01*
X89231573Y-71322838D01*
X89963310Y-72055853D01*
X90919860Y-72453047D01*
X91955596Y-72453951D01*
X92912838Y-72058427D01*
X93645853Y-71326690D01*
X93911166Y-70687744D01*
X93959340Y-70929930D01*
X94262172Y-71383149D01*
X94488000Y-71534043D01*
X94488000Y-71755000D01*
X94546004Y-72046605D01*
X94702076Y-72280182D01*
X94711185Y-72293815D01*
X95346185Y-72928816D01*
X95493244Y-73027077D01*
X95593395Y-73093996D01*
X95885000Y-73152000D01*
X111633000Y-73152000D01*
X111633000Y-75181358D01*
X111480378Y-75333714D01*
X111315687Y-75730332D01*
X111315313Y-76159784D01*
X111384405Y-76327000D01*
X109349642Y-76327000D01*
X109197286Y-76174378D01*
X108800668Y-76009687D01*
X108371216Y-76009313D01*
X107974311Y-76173311D01*
X107670378Y-76476714D01*
X107505687Y-76873332D01*
X107505313Y-77302784D01*
X107669311Y-77699689D01*
X107972714Y-78003622D01*
X108369332Y-78168313D01*
X108798784Y-78168687D01*
X109195689Y-78004689D01*
X109349646Y-77851000D01*
X113984370Y-77851000D01*
X113666869Y-78168501D01*
X113451216Y-78168313D01*
X113054311Y-78332311D01*
X112900354Y-78486000D01*
X104902000Y-78486000D01*
X104610395Y-78544004D01*
X104511377Y-78610166D01*
X104363185Y-78709184D01*
X104141868Y-78930501D01*
X103926216Y-78930313D01*
X103529311Y-79094311D01*
X103225378Y-79397714D01*
X103165855Y-79541060D01*
X103101286Y-79476378D01*
X102997000Y-79433074D01*
X102997000Y-75694642D01*
X103149622Y-75542286D01*
X103314313Y-75145668D01*
X103314687Y-74716216D01*
X103150689Y-74319311D01*
X102847286Y-74015378D01*
X102450668Y-73850687D01*
X102021216Y-73850313D01*
X101624311Y-74014311D01*
X101320378Y-74317714D01*
X101155687Y-74714332D01*
X101155313Y-75143784D01*
X101319311Y-75540689D01*
X101473000Y-75694646D01*
X101473000Y-80010000D01*
X101474729Y-80018694D01*
X101409687Y-80175332D01*
X101409313Y-80604784D01*
X101573311Y-81001689D01*
X101876714Y-81305622D01*
X102273332Y-81470313D01*
X102702784Y-81470687D01*
X103099689Y-81306689D01*
X103403622Y-81003286D01*
X103463145Y-80859940D01*
X103527714Y-80924622D01*
X103924332Y-81089313D01*
X104353784Y-81089687D01*
X104750689Y-80925689D01*
X104782403Y-80894031D01*
X104711687Y-81064332D01*
X104711313Y-81493784D01*
X104875311Y-81890689D01*
X105178714Y-82194622D01*
X105575332Y-82359313D01*
X105792872Y-82359502D01*
X107030185Y-83596816D01*
X107178377Y-83695834D01*
X107277395Y-83761996D01*
X107569000Y-83820000D01*
X131064000Y-83820000D01*
X131355605Y-83761996D01*
X131602815Y-83596815D01*
X136713630Y-78486000D01*
X150241000Y-78486000D01*
X150532605Y-78427996D01*
X150779815Y-78262815D01*
X150944996Y-78015605D01*
X151003000Y-77724000D01*
X151003000Y-76261630D01*
X152281843Y-74982788D01*
X152281649Y-75204901D01*
X152492531Y-75715274D01*
X152882672Y-76106096D01*
X153392676Y-76317869D01*
X153944901Y-76318351D01*
X154455274Y-76107469D01*
X154493590Y-76069220D01*
X157068185Y-78643816D01*
X157068188Y-78643818D01*
X158942370Y-80518000D01*
X151182606Y-80518000D01*
X149949803Y-79285197D01*
X149907789Y-79257334D01*
X149860000Y-79248000D01*
X138430000Y-79248000D01*
X138380590Y-79258006D01*
X138340197Y-79285197D01*
X132662394Y-84963000D01*
X90170000Y-84963000D01*
X90120590Y-84973006D01*
X90080197Y-85000197D01*
X79920197Y-95160197D01*
X79892334Y-95202211D01*
X79883000Y-95250000D01*
X79883000Y-106680000D01*
X79893006Y-106729410D01*
X79921447Y-106771035D01*
X79963841Y-106798315D01*
X80010000Y-106807000D01*
X136525000Y-106807000D01*
X136574410Y-106796994D01*
X136614803Y-106769803D01*
X137249803Y-106134803D01*
X137277666Y-106092789D01*
X137287000Y-106045000D01*
X137287000Y-98477606D01*
X137847606Y-97917000D01*
X144092394Y-97917000D01*
X144653000Y-98477606D01*
X144653000Y-112052267D01*
X144448427Y-111557162D01*
X143716690Y-110824147D01*
X142760140Y-110426953D01*
X141724404Y-110426049D01*
X140767162Y-110821573D01*
X140034147Y-111553310D01*
X139636953Y-112509860D01*
X139636049Y-113545596D01*
X140031573Y-114502838D01*
X140763310Y-115235853D01*
X141719860Y-115633047D01*
X142755596Y-115633951D01*
X143712838Y-115238427D01*
X144445853Y-114506690D01*
X144653000Y-114007824D01*
X144653000Y-115517394D01*
X142150197Y-118020197D01*
X142122334Y-118062211D01*
X142113000Y-118110000D01*
X142113000Y-119965000D01*
X140138994Y-119965000D01*
X140234609Y-119945981D01*
X140687828Y-119643149D01*
X140990660Y-119189930D01*
X141097000Y-118655321D01*
X141097000Y-117564679D01*
X140990660Y-117030070D01*
X140687828Y-116576851D01*
X140234609Y-116274019D01*
X139700000Y-116167679D01*
X139165391Y-116274019D01*
X138712172Y-116576851D01*
X138430000Y-116999150D01*
X138147828Y-116576851D01*
X137694609Y-116274019D01*
X137160000Y-116167679D01*
X136625391Y-116274019D01*
X136172172Y-116576851D01*
X135890000Y-116999150D01*
X135607828Y-116576851D01*
X135154609Y-116274019D01*
X134620000Y-116167679D01*
X134085391Y-116274019D01*
X133632172Y-116576851D01*
X133350000Y-116999150D01*
X133067828Y-116576851D01*
X132614609Y-116274019D01*
X132080000Y-116167679D01*
X131545391Y-116274019D01*
X131092172Y-116576851D01*
X130810000Y-116999150D01*
X130527828Y-116576851D01*
X130074609Y-116274019D01*
X129540000Y-116167679D01*
X129005391Y-116274019D01*
X128552172Y-116576851D01*
X128270000Y-116999150D01*
X127987828Y-116576851D01*
X127534609Y-116274019D01*
X127000000Y-116167679D01*
X126465391Y-116274019D01*
X126012172Y-116576851D01*
X125709340Y-117030070D01*
X125603000Y-117564679D01*
X125603000Y-118655321D01*
X125709340Y-119189930D01*
X126012172Y-119643149D01*
X126465391Y-119945981D01*
X126561006Y-119965000D01*
X122358994Y-119965000D01*
X122454609Y-119945981D01*
X122907828Y-119643149D01*
X123210660Y-119189930D01*
X123317000Y-118655321D01*
X123317000Y-117564679D01*
X123210660Y-117030070D01*
X122907828Y-116576851D01*
X122454609Y-116274019D01*
X121920000Y-116167679D01*
X121385391Y-116274019D01*
X120932172Y-116576851D01*
X120650000Y-116999150D01*
X120367828Y-116576851D01*
X119914609Y-116274019D01*
X119380000Y-116167679D01*
X118845391Y-116274019D01*
X118392172Y-116576851D01*
X118100670Y-117013113D01*
X118082059Y-116950059D01*
X117738026Y-116524370D01*
X117257277Y-116262740D01*
X117183070Y-116247780D01*
X116967000Y-116370280D01*
X116967000Y-117983000D01*
X116987000Y-117983000D01*
X116987000Y-118237000D01*
X116967000Y-118237000D01*
X116967000Y-118257000D01*
X116713000Y-118257000D01*
X116713000Y-118237000D01*
X116693000Y-118237000D01*
X116693000Y-117983000D01*
X116713000Y-117983000D01*
X116713000Y-116370280D01*
X116496930Y-116247780D01*
X116422723Y-116262740D01*
X115941974Y-116524370D01*
X115597941Y-116950059D01*
X115579330Y-117013113D01*
X115287828Y-116576851D01*
X114834609Y-116274019D01*
X114300000Y-116167679D01*
X113765391Y-116274019D01*
X113312172Y-116576851D01*
X113030000Y-116999150D01*
X112747828Y-116576851D01*
X112294609Y-116274019D01*
X111760000Y-116167679D01*
X111225391Y-116274019D01*
X110772172Y-116576851D01*
X110490000Y-116999150D01*
X110207828Y-116576851D01*
X109754609Y-116274019D01*
X109220000Y-116167679D01*
X108685391Y-116274019D01*
X108232172Y-116576851D01*
X107950000Y-116999150D01*
X107667828Y-116576851D01*
X107214609Y-116274019D01*
X106680000Y-116167679D01*
X106145391Y-116274019D01*
X105692172Y-116576851D01*
X105410000Y-116999150D01*
X105127828Y-116576851D01*
X104674609Y-116274019D01*
X104140000Y-116167679D01*
X103605391Y-116274019D01*
X103152172Y-116576851D01*
X102849340Y-117030070D01*
X102743000Y-117564679D01*
X102743000Y-118655321D01*
X102849340Y-119189930D01*
X103152172Y-119643149D01*
X103605391Y-119945981D01*
X103701006Y-119965000D01*
X91996882Y-119965000D01*
X92375853Y-119586690D01*
X92773047Y-118630140D01*
X92773951Y-117594404D01*
X92378427Y-116637162D01*
X91646690Y-115904147D01*
X90690140Y-115506953D01*
X89654404Y-115506049D01*
X88697162Y-115901573D01*
X87964147Y-116633310D01*
X87566953Y-117589860D01*
X87566049Y-118625596D01*
X87961573Y-119582838D01*
X88343069Y-119965000D01*
X76885000Y-119965000D01*
X76885000Y-67995000D01*
X89613118Y-67995000D01*
X89234147Y-68373310D01*
G36*
X151447498Y-73661872D02*
X149702185Y-75407185D01*
X149537004Y-75654395D01*
X149479000Y-75946000D01*
X149479000Y-76962000D01*
X136398000Y-76962000D01*
X136106395Y-77020004D01*
X135859185Y-77185185D01*
X130748370Y-82296000D01*
X122110390Y-82296000D01*
X122110687Y-81955216D01*
X121946689Y-81558311D01*
X121643286Y-81254378D01*
X121246668Y-81089687D01*
X120817216Y-81089313D01*
X120420311Y-81253311D01*
X120266354Y-81407000D01*
X111889642Y-81407000D01*
X111737286Y-81254378D01*
X111340668Y-81089687D01*
X110911216Y-81089313D01*
X110514311Y-81253311D01*
X110210378Y-81556714D01*
X110045687Y-81953332D01*
X110045389Y-82296000D01*
X107884631Y-82296000D01*
X106870499Y-81281869D01*
X106870687Y-81066216D01*
X106706689Y-80669311D01*
X106403286Y-80365378D01*
X106006668Y-80200687D01*
X105577216Y-80200313D01*
X105180311Y-80364311D01*
X105148597Y-80395969D01*
X105219313Y-80225668D01*
X105219501Y-80010000D01*
X112900358Y-80010000D01*
X113052714Y-80162622D01*
X113449332Y-80327313D01*
X113878784Y-80327687D01*
X114275689Y-80163689D01*
X114579622Y-79860286D01*
X114744313Y-79463668D01*
X114744502Y-79246128D01*
X118044630Y-75946000D01*
X125668370Y-75946000D01*
X125804324Y-76081954D01*
X125455099Y-76081649D01*
X124944726Y-76292531D01*
X124553904Y-76682672D01*
X124342131Y-77192676D01*
X124341649Y-77744901D01*
X124552531Y-78255274D01*
X124942672Y-78646096D01*
X125452676Y-78857869D01*
X126004901Y-78858351D01*
X126515274Y-78647469D01*
X126906096Y-78257328D01*
X126999969Y-78031257D01*
X127092531Y-78255274D01*
X127482672Y-78646096D01*
X127992676Y-78857869D01*
X128544901Y-78858351D01*
X129055274Y-78647469D01*
X129446096Y-78257328D01*
X129539969Y-78031257D01*
X129632531Y-78255274D01*
X130022672Y-78646096D01*
X130532676Y-78857869D01*
X131084901Y-78858351D01*
X131595274Y-78647469D01*
X131986096Y-78257328D01*
X132197869Y-77747324D01*
X132198351Y-77195099D01*
X131987469Y-76684726D01*
X131597328Y-76293904D01*
X131087324Y-76082131D01*
X130535099Y-76081649D01*
X130024726Y-76292531D01*
X129633904Y-76682672D01*
X129540031Y-76908743D01*
X129447469Y-76684726D01*
X129057328Y-76293904D01*
X128547324Y-76082131D01*
X127995099Y-76081649D01*
X127969753Y-76092122D01*
X127188630Y-75311000D01*
X149479000Y-75311000D01*
X149770605Y-75252996D01*
X150017815Y-75087815D01*
X151447501Y-73658130D01*
X151447498Y-73661872D01*
X151447498Y-73661872D01*
G37*
X151447498Y-73661872D02*
X149702185Y-75407185D01*
X149537004Y-75654395D01*
X149479000Y-75946000D01*
X149479000Y-76962000D01*
X136398000Y-76962000D01*
X136106395Y-77020004D01*
X135859185Y-77185185D01*
X130748370Y-82296000D01*
X122110390Y-82296000D01*
X122110687Y-81955216D01*
X121946689Y-81558311D01*
X121643286Y-81254378D01*
X121246668Y-81089687D01*
X120817216Y-81089313D01*
X120420311Y-81253311D01*
X120266354Y-81407000D01*
X111889642Y-81407000D01*
X111737286Y-81254378D01*
X111340668Y-81089687D01*
X110911216Y-81089313D01*
X110514311Y-81253311D01*
X110210378Y-81556714D01*
X110045687Y-81953332D01*
X110045389Y-82296000D01*
X107884631Y-82296000D01*
X106870499Y-81281869D01*
X106870687Y-81066216D01*
X106706689Y-80669311D01*
X106403286Y-80365378D01*
X106006668Y-80200687D01*
X105577216Y-80200313D01*
X105180311Y-80364311D01*
X105148597Y-80395969D01*
X105219313Y-80225668D01*
X105219501Y-80010000D01*
X112900358Y-80010000D01*
X113052714Y-80162622D01*
X113449332Y-80327313D01*
X113878784Y-80327687D01*
X114275689Y-80163689D01*
X114579622Y-79860286D01*
X114744313Y-79463668D01*
X114744502Y-79246128D01*
X118044630Y-75946000D01*
X125668370Y-75946000D01*
X125804324Y-76081954D01*
X125455099Y-76081649D01*
X124944726Y-76292531D01*
X124553904Y-76682672D01*
X124342131Y-77192676D01*
X124341649Y-77744901D01*
X124552531Y-78255274D01*
X124942672Y-78646096D01*
X125452676Y-78857869D01*
X126004901Y-78858351D01*
X126515274Y-78647469D01*
X126906096Y-78257328D01*
X126999969Y-78031257D01*
X127092531Y-78255274D01*
X127482672Y-78646096D01*
X127992676Y-78857869D01*
X128544901Y-78858351D01*
X129055274Y-78647469D01*
X129446096Y-78257328D01*
X129539969Y-78031257D01*
X129632531Y-78255274D01*
X130022672Y-78646096D01*
X130532676Y-78857869D01*
X131084901Y-78858351D01*
X131595274Y-78647469D01*
X131986096Y-78257328D01*
X132197869Y-77747324D01*
X132198351Y-77195099D01*
X131987469Y-76684726D01*
X131597328Y-76293904D01*
X131087324Y-76082131D01*
X130535099Y-76081649D01*
X130024726Y-76292531D01*
X129633904Y-76682672D01*
X129540031Y-76908743D01*
X129447469Y-76684726D01*
X129057328Y-76293904D01*
X128547324Y-76082131D01*
X127995099Y-76081649D01*
X127969753Y-76092122D01*
X127188630Y-75311000D01*
X149479000Y-75311000D01*
X149770605Y-75252996D01*
X150017815Y-75087815D01*
X151447501Y-73658130D01*
X151447498Y-73661872D01*
G36*
X159385000Y-86167630D02*
X159385000Y-89355394D01*
X157390197Y-91350197D01*
X157362334Y-91392211D01*
X157353000Y-91440000D01*
X157353000Y-95250000D01*
X157363006Y-95299410D01*
X157390197Y-95339803D01*
X159930197Y-97879803D01*
X159972211Y-97907666D01*
X160020000Y-97917000D01*
X166243000Y-97917000D01*
X166243000Y-110437394D01*
X163740197Y-112940197D01*
X163712334Y-112982211D01*
X163703000Y-113030000D01*
X163703000Y-119965000D01*
X143637000Y-119965000D01*
X143637000Y-118797606D01*
X146139803Y-116294803D01*
X146167666Y-116252789D01*
X146177000Y-116205000D01*
X146177000Y-116042325D01*
X147474587Y-116042325D01*
X147836916Y-116919229D01*
X148507242Y-117590726D01*
X149383513Y-117954585D01*
X150332325Y-117955413D01*
X151209229Y-117593084D01*
X151880726Y-116922758D01*
X152244585Y-116046487D01*
X152244588Y-116042325D01*
X157634587Y-116042325D01*
X157996916Y-116919229D01*
X158667242Y-117590726D01*
X159543513Y-117954585D01*
X160492325Y-117955413D01*
X161369229Y-117593084D01*
X162040726Y-116922758D01*
X162404585Y-116046487D01*
X162405413Y-115097675D01*
X162043084Y-114220771D01*
X161372758Y-113549274D01*
X160496487Y-113185415D01*
X159547675Y-113184587D01*
X158670771Y-113546916D01*
X157999274Y-114217242D01*
X157635415Y-115093513D01*
X157634587Y-116042325D01*
X152244588Y-116042325D01*
X152245413Y-115097675D01*
X151883084Y-114220771D01*
X151212758Y-113549274D01*
X150336487Y-113185415D01*
X149387675Y-113184587D01*
X148510771Y-113546916D01*
X147839274Y-114217242D01*
X147475415Y-115093513D01*
X147474587Y-116042325D01*
X146177000Y-116042325D01*
X146177000Y-109590000D01*
X153392560Y-109590000D01*
X153392560Y-111390000D01*
X153436838Y-111625317D01*
X153575910Y-111841441D01*
X153788110Y-111986431D01*
X154040000Y-112037440D01*
X155840000Y-112037440D01*
X156075317Y-111993162D01*
X156291441Y-111854090D01*
X156436431Y-111641890D01*
X156440567Y-111621466D01*
X156609357Y-111790551D01*
X157173330Y-112024733D01*
X157783991Y-112025265D01*
X158348371Y-111792068D01*
X158780551Y-111360643D01*
X159014733Y-110796670D01*
X159015265Y-110186009D01*
X158782068Y-109621629D01*
X158350643Y-109189449D01*
X157786670Y-108955267D01*
X157176009Y-108954735D01*
X156611629Y-109187932D01*
X156443387Y-109355880D01*
X156443162Y-109354683D01*
X156304090Y-109138559D01*
X156091890Y-108993569D01*
X155840000Y-108942560D01*
X154040000Y-108942560D01*
X153804683Y-108986838D01*
X153588559Y-109125910D01*
X153443569Y-109338110D01*
X153392560Y-109590000D01*
X146177000Y-109590000D01*
X146177000Y-104864679D01*
X151003000Y-104864679D01*
X151003000Y-105955321D01*
X151109340Y-106489930D01*
X151412172Y-106943149D01*
X151865391Y-107245981D01*
X152400000Y-107352321D01*
X152934609Y-107245981D01*
X153387828Y-106943149D01*
X153670000Y-106520850D01*
X153952172Y-106943149D01*
X154405391Y-107245981D01*
X154940000Y-107352321D01*
X155474609Y-107245981D01*
X155927828Y-106943149D01*
X156210000Y-106520850D01*
X156492172Y-106943149D01*
X156945391Y-107245981D01*
X157480000Y-107352321D01*
X158014609Y-107245981D01*
X158467828Y-106943149D01*
X158770660Y-106489930D01*
X158877000Y-105955321D01*
X158877000Y-104864679D01*
X158770660Y-104330070D01*
X158467828Y-103876851D01*
X158014609Y-103574019D01*
X157480000Y-103467679D01*
X156945391Y-103574019D01*
X156492172Y-103876851D01*
X156210000Y-104299150D01*
X155927828Y-103876851D01*
X155474609Y-103574019D01*
X154940000Y-103467679D01*
X154405391Y-103574019D01*
X153952172Y-103876851D01*
X153670000Y-104299150D01*
X153387828Y-103876851D01*
X152934609Y-103574019D01*
X152400000Y-103467679D01*
X151865391Y-103574019D01*
X151412172Y-103876851D01*
X151109340Y-104330070D01*
X151003000Y-104864679D01*
X146177000Y-104864679D01*
X146177000Y-97155000D01*
X146166994Y-97105590D01*
X146139803Y-97065197D01*
X145504803Y-96430197D01*
X145462789Y-96402334D01*
X145415000Y-96393000D01*
X136525000Y-96393000D01*
X136475590Y-96403006D01*
X136435197Y-96430197D01*
X135800197Y-97065197D01*
X135772334Y-97107211D01*
X135763000Y-97155000D01*
X135763000Y-105283000D01*
X123317000Y-105283000D01*
X123317000Y-95302606D01*
X128322606Y-90297000D01*
X144780000Y-90297000D01*
X144829410Y-90286994D01*
X144869803Y-90259803D01*
X147372606Y-87757000D01*
X150994000Y-87757000D01*
X150994000Y-88256000D01*
X151149626Y-88784386D01*
X151495610Y-89212995D01*
X151979280Y-89476576D01*
X152055516Y-89492145D01*
X152273000Y-89369767D01*
X152273000Y-87757000D01*
X150994000Y-87757000D01*
X147372606Y-87757000D01*
X148125606Y-87004000D01*
X150994000Y-87004000D01*
X150994000Y-87503000D01*
X152273000Y-87503000D01*
X152273000Y-85890233D01*
X152527000Y-85890233D01*
X152527000Y-87503000D01*
X152547000Y-87503000D01*
X152547000Y-87757000D01*
X152527000Y-87757000D01*
X152527000Y-89369767D01*
X152744484Y-89492145D01*
X152820720Y-89476576D01*
X153304390Y-89212995D01*
X153650374Y-88784386D01*
X153665278Y-88733783D01*
X153952172Y-89163149D01*
X154405391Y-89465981D01*
X154940000Y-89572321D01*
X155474609Y-89465981D01*
X155927828Y-89163149D01*
X156210000Y-88740850D01*
X156492172Y-89163149D01*
X156945391Y-89465981D01*
X157480000Y-89572321D01*
X158014609Y-89465981D01*
X158467828Y-89163149D01*
X158770660Y-88709930D01*
X158877000Y-88175321D01*
X158877000Y-87084679D01*
X158770660Y-86550070D01*
X158467828Y-86096851D01*
X158014609Y-85794019D01*
X157480000Y-85687679D01*
X156945391Y-85794019D01*
X156492172Y-86096851D01*
X156210000Y-86519150D01*
X155927828Y-86096851D01*
X155474609Y-85794019D01*
X154940000Y-85687679D01*
X154405391Y-85794019D01*
X153952172Y-86096851D01*
X153665278Y-86526217D01*
X153650374Y-86475614D01*
X153304390Y-86047005D01*
X152820720Y-85783424D01*
X152744484Y-85767855D01*
X152527000Y-85890233D01*
X152273000Y-85890233D01*
X152055516Y-85767855D01*
X151979280Y-85783424D01*
X151495610Y-86047005D01*
X151149626Y-86475614D01*
X150994000Y-87004000D01*
X148125606Y-87004000D01*
X149912606Y-85217000D01*
X158434370Y-85217000D01*
X159385000Y-86167630D01*
X159385000Y-86167630D01*
G37*
X159385000Y-86167630D02*
X159385000Y-89355394D01*
X157390197Y-91350197D01*
X157362334Y-91392211D01*
X157353000Y-91440000D01*
X157353000Y-95250000D01*
X157363006Y-95299410D01*
X157390197Y-95339803D01*
X159930197Y-97879803D01*
X159972211Y-97907666D01*
X160020000Y-97917000D01*
X166243000Y-97917000D01*
X166243000Y-110437394D01*
X163740197Y-112940197D01*
X163712334Y-112982211D01*
X163703000Y-113030000D01*
X163703000Y-119965000D01*
X143637000Y-119965000D01*
X143637000Y-118797606D01*
X146139803Y-116294803D01*
X146167666Y-116252789D01*
X146177000Y-116205000D01*
X146177000Y-116042325D01*
X147474587Y-116042325D01*
X147836916Y-116919229D01*
X148507242Y-117590726D01*
X149383513Y-117954585D01*
X150332325Y-117955413D01*
X151209229Y-117593084D01*
X151880726Y-116922758D01*
X152244585Y-116046487D01*
X152244588Y-116042325D01*
X157634587Y-116042325D01*
X157996916Y-116919229D01*
X158667242Y-117590726D01*
X159543513Y-117954585D01*
X160492325Y-117955413D01*
X161369229Y-117593084D01*
X162040726Y-116922758D01*
X162404585Y-116046487D01*
X162405413Y-115097675D01*
X162043084Y-114220771D01*
X161372758Y-113549274D01*
X160496487Y-113185415D01*
X159547675Y-113184587D01*
X158670771Y-113546916D01*
X157999274Y-114217242D01*
X157635415Y-115093513D01*
X157634587Y-116042325D01*
X152244588Y-116042325D01*
X152245413Y-115097675D01*
X151883084Y-114220771D01*
X151212758Y-113549274D01*
X150336487Y-113185415D01*
X149387675Y-113184587D01*
X148510771Y-113546916D01*
X147839274Y-114217242D01*
X147475415Y-115093513D01*
X147474587Y-116042325D01*
X146177000Y-116042325D01*
X146177000Y-109590000D01*
X153392560Y-109590000D01*
X153392560Y-111390000D01*
X153436838Y-111625317D01*
X153575910Y-111841441D01*
X153788110Y-111986431D01*
X154040000Y-112037440D01*
X155840000Y-112037440D01*
X156075317Y-111993162D01*
X156291441Y-111854090D01*
X156436431Y-111641890D01*
X156440567Y-111621466D01*
X156609357Y-111790551D01*
X157173330Y-112024733D01*
X157783991Y-112025265D01*
X158348371Y-111792068D01*
X158780551Y-111360643D01*
X159014733Y-110796670D01*
X159015265Y-110186009D01*
X158782068Y-109621629D01*
X158350643Y-109189449D01*
X157786670Y-108955267D01*
X157176009Y-108954735D01*
X156611629Y-109187932D01*
X156443387Y-109355880D01*
X156443162Y-109354683D01*
X156304090Y-109138559D01*
X156091890Y-108993569D01*
X155840000Y-108942560D01*
X154040000Y-108942560D01*
X153804683Y-108986838D01*
X153588559Y-109125910D01*
X153443569Y-109338110D01*
X153392560Y-109590000D01*
X146177000Y-109590000D01*
X146177000Y-104864679D01*
X151003000Y-104864679D01*
X151003000Y-105955321D01*
X151109340Y-106489930D01*
X151412172Y-106943149D01*
X151865391Y-107245981D01*
X152400000Y-107352321D01*
X152934609Y-107245981D01*
X153387828Y-106943149D01*
X153670000Y-106520850D01*
X153952172Y-106943149D01*
X154405391Y-107245981D01*
X154940000Y-107352321D01*
X155474609Y-107245981D01*
X155927828Y-106943149D01*
X156210000Y-106520850D01*
X156492172Y-106943149D01*
X156945391Y-107245981D01*
X157480000Y-107352321D01*
X158014609Y-107245981D01*
X158467828Y-106943149D01*
X158770660Y-106489930D01*
X158877000Y-105955321D01*
X158877000Y-104864679D01*
X158770660Y-104330070D01*
X158467828Y-103876851D01*
X158014609Y-103574019D01*
X157480000Y-103467679D01*
X156945391Y-103574019D01*
X156492172Y-103876851D01*
X156210000Y-104299150D01*
X155927828Y-103876851D01*
X155474609Y-103574019D01*
X154940000Y-103467679D01*
X154405391Y-103574019D01*
X153952172Y-103876851D01*
X153670000Y-104299150D01*
X153387828Y-103876851D01*
X152934609Y-103574019D01*
X152400000Y-103467679D01*
X151865391Y-103574019D01*
X151412172Y-103876851D01*
X151109340Y-104330070D01*
X151003000Y-104864679D01*
X146177000Y-104864679D01*
X146177000Y-97155000D01*
X146166994Y-97105590D01*
X146139803Y-97065197D01*
X145504803Y-96430197D01*
X145462789Y-96402334D01*
X145415000Y-96393000D01*
X136525000Y-96393000D01*
X136475590Y-96403006D01*
X136435197Y-96430197D01*
X135800197Y-97065197D01*
X135772334Y-97107211D01*
X135763000Y-97155000D01*
X135763000Y-105283000D01*
X123317000Y-105283000D01*
X123317000Y-95302606D01*
X128322606Y-90297000D01*
X144780000Y-90297000D01*
X144829410Y-90286994D01*
X144869803Y-90259803D01*
X147372606Y-87757000D01*
X150994000Y-87757000D01*
X150994000Y-88256000D01*
X151149626Y-88784386D01*
X151495610Y-89212995D01*
X151979280Y-89476576D01*
X152055516Y-89492145D01*
X152273000Y-89369767D01*
X152273000Y-87757000D01*
X150994000Y-87757000D01*
X147372606Y-87757000D01*
X148125606Y-87004000D01*
X150994000Y-87004000D01*
X150994000Y-87503000D01*
X152273000Y-87503000D01*
X152273000Y-85890233D01*
X152527000Y-85890233D01*
X152527000Y-87503000D01*
X152547000Y-87503000D01*
X152547000Y-87757000D01*
X152527000Y-87757000D01*
X152527000Y-89369767D01*
X152744484Y-89492145D01*
X152820720Y-89476576D01*
X153304390Y-89212995D01*
X153650374Y-88784386D01*
X153665278Y-88733783D01*
X153952172Y-89163149D01*
X154405391Y-89465981D01*
X154940000Y-89572321D01*
X155474609Y-89465981D01*
X155927828Y-89163149D01*
X156210000Y-88740850D01*
X156492172Y-89163149D01*
X156945391Y-89465981D01*
X157480000Y-89572321D01*
X158014609Y-89465981D01*
X158467828Y-89163149D01*
X158770660Y-88709930D01*
X158877000Y-88175321D01*
X158877000Y-87084679D01*
X158770660Y-86550070D01*
X158467828Y-86096851D01*
X158014609Y-85794019D01*
X157480000Y-85687679D01*
X156945391Y-85794019D01*
X156492172Y-86096851D01*
X156210000Y-86519150D01*
X155927828Y-86096851D01*
X155474609Y-85794019D01*
X154940000Y-85687679D01*
X154405391Y-85794019D01*
X153952172Y-86096851D01*
X153665278Y-86526217D01*
X153650374Y-86475614D01*
X153304390Y-86047005D01*
X152820720Y-85783424D01*
X152744484Y-85767855D01*
X152527000Y-85890233D01*
X152273000Y-85890233D01*
X152055516Y-85767855D01*
X151979280Y-85783424D01*
X151495610Y-86047005D01*
X151149626Y-86475614D01*
X150994000Y-87004000D01*
X148125606Y-87004000D01*
X149912606Y-85217000D01*
X158434370Y-85217000D01*
X159385000Y-86167630D01*
G36*
X121830197Y-95160197D02*
X121802334Y-95202211D01*
X121793000Y-95250000D01*
X121793000Y-105283000D01*
X109347000Y-105283000D01*
X109347000Y-95302606D01*
X115622606Y-89027000D01*
X127963394Y-89027000D01*
X121830197Y-95160197D01*
X121830197Y-95160197D01*
G37*
X121830197Y-95160197D02*
X121802334Y-95202211D01*
X121793000Y-95250000D01*
X121793000Y-105283000D01*
X109347000Y-105283000D01*
X109347000Y-95302606D01*
X115622606Y-89027000D01*
X127963394Y-89027000D01*
X121830197Y-95160197D01*
G36*
X107860197Y-95160197D02*
X107832334Y-95202211D01*
X107823000Y-95250000D01*
X107823000Y-105283000D01*
X95377000Y-105283000D01*
X95377000Y-95302606D01*
X102922606Y-87757000D01*
X115263394Y-87757000D01*
X107860197Y-95160197D01*
X107860197Y-95160197D01*
G37*
X107860197Y-95160197D02*
X107832334Y-95202211D01*
X107823000Y-95250000D01*
X107823000Y-105283000D01*
X95377000Y-105283000D01*
X95377000Y-95302606D01*
X102922606Y-87757000D01*
X115263394Y-87757000D01*
X107860197Y-95160197D01*
G36*
X93890197Y-95160197D02*
X93862334Y-95202211D01*
X93853000Y-95250000D01*
X93853000Y-105283000D01*
X81407000Y-105283000D01*
X81407000Y-95302606D01*
X90222606Y-86487000D01*
X102563394Y-86487000D01*
X93890197Y-95160197D01*
X93890197Y-95160197D01*
G37*
X93890197Y-95160197D02*
X93862334Y-95202211D01*
X93853000Y-95250000D01*
X93853000Y-105283000D01*
X81407000Y-105283000D01*
X81407000Y-95302606D01*
X90222606Y-86487000D01*
X102563394Y-86487000D01*
X93890197Y-95160197D01*
M02*
