G04 #@! TF.FileFunction,Soldermask,Bot*
%FSLAX46Y46*%
G04 Gerber Fmt 4.6, Leading zero omitted, Abs format (unit mm)*
G04 Created by KiCad (PCBNEW 4.0.2-stable) date 18/09/2016 18:07:30*
%MOMM*%
G01*
G04 APERTURE LIST*
%ADD10C,0.150000*%
%ADD11C,1.506220*%
%ADD12C,3.500000*%
%ADD13R,1.800000X1.800000*%
%ADD14C,1.800000*%
%ADD15O,1.524000X2.540000*%
%ADD16O,1.542000X2.540000*%
G04 APERTURE END LIST*
D10*
D11*
X153670000Y-69850000D03*
X153670000Y-72390000D03*
X153670000Y-74930000D03*
X156210000Y-69850000D03*
X156210000Y-72390000D03*
X156210000Y-74930000D03*
X171450000Y-69850000D03*
X171450000Y-72390000D03*
X171450000Y-74930000D03*
X173990000Y-69850000D03*
X173990000Y-72390000D03*
X173990000Y-74930000D03*
X189230000Y-69850000D03*
X189230000Y-72390000D03*
X189230000Y-74930000D03*
X191770000Y-69850000D03*
X191770000Y-72390000D03*
X191770000Y-74930000D03*
X207010000Y-69850000D03*
X207010000Y-72390000D03*
X207010000Y-74930000D03*
X209550000Y-69850000D03*
X209550000Y-72390000D03*
X209550000Y-74930000D03*
X125730000Y-77470000D03*
X128270000Y-77470000D03*
X130810000Y-77470000D03*
D12*
X160020000Y-115570000D03*
X149860000Y-115570000D03*
D13*
X154940000Y-110490000D03*
D14*
X157480000Y-110490000D03*
D12*
X177800000Y-115570000D03*
X167640000Y-115570000D03*
D13*
X172720000Y-110490000D03*
D14*
X175260000Y-110490000D03*
D12*
X195580000Y-115570000D03*
X185420000Y-115570000D03*
D13*
X190500000Y-110490000D03*
D14*
X193040000Y-110490000D03*
D12*
X213360000Y-115570000D03*
X203200000Y-115570000D03*
D13*
X208280000Y-110490000D03*
D14*
X210820000Y-110490000D03*
D15*
X139700000Y-118110000D03*
X137160000Y-118110000D03*
X134620000Y-118110000D03*
X127000000Y-118110000D03*
X129540000Y-118110000D03*
X132080000Y-118110000D03*
X121920000Y-118110000D03*
X119380000Y-118110000D03*
X116840000Y-118110000D03*
X111760000Y-118110000D03*
X109220000Y-118110000D03*
X139700000Y-69850000D03*
X137160000Y-69850000D03*
X134620000Y-69850000D03*
X132080000Y-69850000D03*
X129540000Y-69850000D03*
X127000000Y-69850000D03*
X124460000Y-69850000D03*
X121920000Y-69850000D03*
X117856000Y-69850000D03*
X115316000Y-69850000D03*
X112776000Y-69850000D03*
X110236000Y-69850000D03*
X107696000Y-69850000D03*
X105156000Y-69850000D03*
X102616000Y-69850000D03*
X100076000Y-69850000D03*
X114300000Y-118110000D03*
X106680000Y-118110000D03*
X104140000Y-118110000D03*
X97790000Y-69850000D03*
X95250000Y-69850000D03*
D16*
X152400000Y-87630000D03*
D15*
X154940000Y-87630000D03*
X157480000Y-87630000D03*
X152400000Y-105410000D03*
X154940000Y-105410000D03*
X157480000Y-105410000D03*
D16*
X170180000Y-87630000D03*
D15*
X172720000Y-87630000D03*
X175260000Y-87630000D03*
X170180000Y-105410000D03*
X172720000Y-105410000D03*
X175260000Y-105410000D03*
D16*
X187960000Y-87630000D03*
D15*
X190500000Y-87630000D03*
X193040000Y-87630000D03*
X187960000Y-105410000D03*
X190500000Y-105410000D03*
X193040000Y-105410000D03*
D16*
X205740000Y-87630000D03*
D15*
X208280000Y-87630000D03*
X210820000Y-87630000D03*
X205740000Y-105410000D03*
X208280000Y-105410000D03*
X210820000Y-105410000D03*
M02*
