M48
;DRILL file {Pcbnew (2013-07-07 BZR 4022)-stable} date 08/12/2015 22:09:00
;FORMAT={-:-/ absolute / inch / decimal}
FMAT,2
INCH,TZ
T1C0.025
T2C0.035
T3C0.039
T4C0.040
T5C0.079
T6C0.125
%
G90
G05
M72
T1
X3.205Y-2.75
X3.44Y-4.475
X3.58Y-3.035
X3.65Y-3.65
X3.695Y-3.15
X3.72Y-4.415
X3.72Y-4.56
X3.845Y-3.15
X4.025Y-2.95
X4.035Y-3.165
X4.1Y-3.15
X4.165Y-3.2
X4.2Y-3.65
X4.275Y-3.035
X4.275Y-4.35
X4.375Y-3.235
X4.425Y-2.99
X4.475Y-2.99
X4.475Y-3.12
X4.6Y-4.35
X4.625Y-3.175
X4.75Y-3.65
X4.765Y-3.235
X4.825Y-4.35
X5.375Y-4.35
X5.55Y-3.65
X5.81Y-2.87
X5.88Y-2.87
X6.005Y-2.9
X6.28Y-3.595
X6.335Y-3.595
X6.36Y-3.
X6.39Y-3.595
X6.445Y-3.595
X6.475Y-3.045
X6.5Y-3.595
X6.52Y-3.005
X6.54Y-3.16
X6.565Y-3.11
X6.605Y-3.06
X6.925Y-2.995
X6.98Y-3.595
X7.035Y-3.595
X7.09Y-3.595
X7.145Y-3.595
X7.2Y-3.595
X7.21Y-3.055
X7.235Y-3.16
X7.39Y-3.11
X7.68Y-3.595
X7.735Y-3.595
X7.79Y-3.595
X7.845Y-3.595
X7.9Y-3.595
X7.935Y-3.16
X7.965Y-2.86
X8.085Y-2.9
X8.35Y-3.595
X8.405Y-3.595
X8.46Y-3.595
X8.465Y-3.16
X8.515Y-3.595
X8.57Y-3.595
T2
X6.1Y-4.35
X6.2Y-4.35
X6.8Y-4.35
X6.9Y-4.35
X7.5Y-4.35
X7.6Y-4.35
X8.2Y-4.35
X8.3Y-4.35
T3
X4.95Y-3.05
X5.05Y-3.05
X5.15Y-3.05
X6.05Y-2.75
X6.05Y-2.85
X6.05Y-2.95
X6.15Y-2.75
X6.15Y-2.85
X6.15Y-2.95
X6.75Y-2.75
X6.75Y-2.85
X6.75Y-2.95
X6.85Y-2.75
X6.85Y-2.85
X6.85Y-2.95
X7.45Y-2.75
X7.45Y-2.85
X7.45Y-2.95
X7.55Y-2.75
X7.55Y-2.85
X7.55Y-2.95
X8.15Y-2.75
X8.15Y-2.85
X8.15Y-2.95
X8.25Y-2.75
X8.25Y-2.85
X8.25Y-2.95
T4
X3.75Y-2.75
X3.85Y-2.75
X3.94Y-2.75
X4.04Y-2.75
X4.1Y-4.65
X4.14Y-2.75
X4.2Y-4.65
X4.24Y-2.75
X4.3Y-4.65
X4.34Y-2.75
X4.4Y-4.65
X4.44Y-2.75
X4.5Y-4.65
X4.54Y-2.75
X4.6Y-4.65
X4.64Y-2.75
X4.7Y-4.65
X4.8Y-2.75
X4.8Y-4.65
X4.9Y-2.75
X5.Y-2.75
X5.Y-4.65
X5.1Y-2.75
X5.1Y-4.65
X5.2Y-2.75
X5.2Y-4.65
X5.3Y-2.75
X5.3Y-4.65
X5.4Y-2.75
X5.4Y-4.65
X5.5Y-2.75
X5.5Y-4.65
X6.Y-3.45
X6.Y-4.15
X6.1Y-3.45
X6.1Y-4.15
X6.2Y-3.45
X6.2Y-4.15
X6.7Y-3.45
X6.7Y-4.15
X6.8Y-3.45
X6.8Y-4.15
X6.9Y-3.45
X6.9Y-4.15
X7.4Y-3.45
X7.4Y-4.15
X7.5Y-3.45
X7.5Y-4.15
X7.6Y-3.45
X7.6Y-4.15
X8.1Y-3.45
X8.1Y-4.15
X8.2Y-3.45
X8.2Y-4.15
X8.3Y-3.45
X8.3Y-4.15
T5
X5.9Y-4.55
X6.3Y-4.55
X6.6Y-4.55
X7.Y-4.55
X7.3Y-4.55
X7.7Y-4.55
X8.Y-4.55
X8.4Y-4.55
T6
X3.55Y-4.65
X3.6Y-2.75
X5.6Y-3.35
X5.6Y-4.45
X8.65Y-3.35
X8.65Y-4.45
T0
M30
