G04 (created by PCBNEW (2013-07-07 BZR 4022)-stable) date 17/10/2015 07:37:00*
%MOIN*%
G04 Gerber Fmt 3.4, Leading zero omitted, Abs format*
%FSLAX34Y34*%
G01*
G70*
G90*
G04 APERTURE LIST*
%ADD10C,0.00590551*%
%ADD11R,0.055X0.035*%
%ADD12R,0.035X0.055*%
%ADD13R,0.0276X0.063*%
%ADD14R,0.0276X0.0827*%
%ADD15R,0.0787X0.1083*%
%ADD16R,0.0708661X0.0472441*%
%ADD17R,0.02X0.045*%
%ADD18R,0.1063X0.1004*%
%ADD19R,0.1496X0.1004*%
%ADD20R,0.102362X0.0511811*%
%ADD21R,0.025X0.05*%
G04 APERTURE END LIST*
G54D10*
G54D11*
X39000Y-38375D03*
X39000Y-37625D03*
X50000Y-38375D03*
X50000Y-37625D03*
G54D12*
X51875Y-36000D03*
X51125Y-36000D03*
G54D11*
X44500Y-38375D03*
X44500Y-37625D03*
G54D12*
X46375Y-36000D03*
X45625Y-36000D03*
X40875Y-36000D03*
X40125Y-36000D03*
G54D11*
X33500Y-38375D03*
X33500Y-37625D03*
G54D12*
X35375Y-36000D03*
X34625Y-36000D03*
G54D11*
X41000Y-30875D03*
X41000Y-30125D03*
G54D13*
X52091Y-37252D03*
G54D14*
X51500Y-37350D03*
G54D13*
X50909Y-37252D03*
G54D15*
X51500Y-38295D03*
G54D13*
X41091Y-37252D03*
G54D14*
X40500Y-37350D03*
G54D13*
X39909Y-37252D03*
G54D15*
X40500Y-38295D03*
G54D13*
X35591Y-37252D03*
G54D14*
X35000Y-37350D03*
G54D13*
X34409Y-37252D03*
G54D15*
X35000Y-38295D03*
G54D13*
X46591Y-37252D03*
G54D14*
X46000Y-37350D03*
G54D13*
X45409Y-37252D03*
G54D15*
X46000Y-38295D03*
G54D16*
X53007Y-43500D03*
X53007Y-42500D03*
X53007Y-41500D03*
X53007Y-40500D03*
X48992Y-40500D03*
X48992Y-41500D03*
X48992Y-42500D03*
X48992Y-43500D03*
X47507Y-43500D03*
X47507Y-42500D03*
X47507Y-41500D03*
X47507Y-40500D03*
X43492Y-40500D03*
X43492Y-41500D03*
X43492Y-42500D03*
X43492Y-43500D03*
X42007Y-43500D03*
X42007Y-42500D03*
X42007Y-41500D03*
X42007Y-40500D03*
X37992Y-40500D03*
X37992Y-41500D03*
X37992Y-42500D03*
X37992Y-43500D03*
X36507Y-43500D03*
X36507Y-42500D03*
X36507Y-41500D03*
X36507Y-40500D03*
X32492Y-40500D03*
X32492Y-41500D03*
X32492Y-42500D03*
X32492Y-43500D03*
G54D17*
X42250Y-29250D03*
X43250Y-29250D03*
X43750Y-29250D03*
X44250Y-29250D03*
X44750Y-29250D03*
X45250Y-29250D03*
X45750Y-29250D03*
X45750Y-31750D03*
X45250Y-31750D03*
X44750Y-31750D03*
X44250Y-31750D03*
X43750Y-31750D03*
X43250Y-31750D03*
X42750Y-31750D03*
X42250Y-31750D03*
X42750Y-29250D03*
G54D18*
X55500Y-39819D03*
G54D19*
X55500Y-42181D03*
G54D20*
X31122Y-27114D03*
X33877Y-27114D03*
X31122Y-28885D03*
X33877Y-28885D03*
G54D12*
X63875Y-28000D03*
X63125Y-28000D03*
X63875Y-29000D03*
X63125Y-29000D03*
X70875Y-28000D03*
X70125Y-28000D03*
X70875Y-29000D03*
X70125Y-29000D03*
X77875Y-29000D03*
X77125Y-29000D03*
X77875Y-28000D03*
X77125Y-28000D03*
X84875Y-30500D03*
X84125Y-30500D03*
X84875Y-29500D03*
X84125Y-29500D03*
X84125Y-27500D03*
X84875Y-27500D03*
X84125Y-28500D03*
X84875Y-28500D03*
G54D21*
X78250Y-37400D03*
X77750Y-37400D03*
X77250Y-37400D03*
X76750Y-37400D03*
X76750Y-39600D03*
X77250Y-39600D03*
X77750Y-39600D03*
X78250Y-39600D03*
X71250Y-37400D03*
X70750Y-37400D03*
X70250Y-37400D03*
X69750Y-37400D03*
X69750Y-39600D03*
X70250Y-39600D03*
X70750Y-39600D03*
X71250Y-39600D03*
X64250Y-37400D03*
X63750Y-37400D03*
X63250Y-37400D03*
X62750Y-37400D03*
X62750Y-39600D03*
X63250Y-39600D03*
X63750Y-39600D03*
X64250Y-39600D03*
X85250Y-37400D03*
X84750Y-37400D03*
X84250Y-37400D03*
X83750Y-37400D03*
X83750Y-39600D03*
X84250Y-39600D03*
X84750Y-39600D03*
X85250Y-39600D03*
G54D11*
X65000Y-37125D03*
X65000Y-37875D03*
X65000Y-39875D03*
X65000Y-39125D03*
G54D12*
X64375Y-42000D03*
X63625Y-42000D03*
X64375Y-41000D03*
X63625Y-41000D03*
X60875Y-40250D03*
X60125Y-40250D03*
G54D11*
X72000Y-37125D03*
X72000Y-37875D03*
X72000Y-39875D03*
X72000Y-39125D03*
G54D12*
X71375Y-42000D03*
X70625Y-42000D03*
X71375Y-41000D03*
X70625Y-41000D03*
X67875Y-40250D03*
X67125Y-40250D03*
G54D11*
X79000Y-37125D03*
X79000Y-37875D03*
X79000Y-39875D03*
X79000Y-39125D03*
G54D12*
X78375Y-42000D03*
X77625Y-42000D03*
X78375Y-41000D03*
X77625Y-41000D03*
X74875Y-40250D03*
X74125Y-40250D03*
G54D11*
X86000Y-37125D03*
X86000Y-37875D03*
X86000Y-39875D03*
X86000Y-39125D03*
G54D12*
X85375Y-42000D03*
X84625Y-42000D03*
X85375Y-41000D03*
X84625Y-41000D03*
X81875Y-40250D03*
X81125Y-40250D03*
M02*
