G04 #@! TF.FileFunction,Paste,Top*
%FSLAX46Y46*%
G04 Gerber Fmt 4.6, Leading zero omitted, Abs format (unit mm)*
G04 Created by KiCad (PCBNEW 4.0.2-stable) date 18/09/2016 18:07:30*
%MOMM*%
G01*
G04 APERTURE LIST*
%ADD10C,0.150000*%
%ADD11R,0.889000X1.397000*%
%ADD12R,1.397000X0.889000*%
%ADD13R,2.700020X2.550160*%
%ADD14R,3.799840X2.550160*%
%ADD15R,1.800000X1.200000*%
%ADD16R,0.508000X1.143000*%
%ADD17R,0.701040X1.600200*%
%ADD18R,0.701040X2.100580*%
%ADD19R,1.998980X2.750820*%
%ADD20R,0.635000X1.270000*%
%ADD21R,2.600000X1.300000*%
G04 APERTURE END LIST*
D10*
D11*
X154622500Y-102235000D03*
X152717500Y-102235000D03*
D12*
X127000000Y-97472500D03*
X127000000Y-95567500D03*
D11*
X131762500Y-91440000D03*
X129857500Y-91440000D03*
D12*
X165100000Y-101282500D03*
X165100000Y-99377500D03*
X165100000Y-94297500D03*
X165100000Y-96202500D03*
D11*
X172402500Y-102235000D03*
X170497500Y-102235000D03*
D12*
X113030000Y-97472500D03*
X113030000Y-95567500D03*
D11*
X117792500Y-91440000D03*
X115887500Y-91440000D03*
D12*
X182880000Y-101282500D03*
X182880000Y-99377500D03*
X182880000Y-94297500D03*
X182880000Y-96202500D03*
D11*
X190182500Y-102235000D03*
X188277500Y-102235000D03*
D12*
X99060000Y-97472500D03*
X99060000Y-95567500D03*
D11*
X103822500Y-91440000D03*
X101917500Y-91440000D03*
D12*
X200660000Y-101282500D03*
X200660000Y-99377500D03*
X200660000Y-94297500D03*
X200660000Y-96202500D03*
D11*
X207962500Y-102235000D03*
X206057500Y-102235000D03*
D12*
X85090000Y-97472500D03*
X85090000Y-95567500D03*
D11*
X89852500Y-91440000D03*
X87947500Y-91440000D03*
D12*
X218440000Y-101282500D03*
X218440000Y-99377500D03*
X218440000Y-94297500D03*
X218440000Y-96202500D03*
D13*
X140970000Y-101140260D03*
D14*
X140970000Y-107139740D03*
D15*
X134640000Y-110490000D03*
X134640000Y-107950000D03*
X134640000Y-105410000D03*
X134640000Y-102870000D03*
X124440000Y-102870000D03*
X124440000Y-105410000D03*
X124440000Y-107950000D03*
X124440000Y-110490000D03*
X120670000Y-110490000D03*
X120670000Y-107950000D03*
X120670000Y-105410000D03*
X120670000Y-102870000D03*
X110470000Y-102870000D03*
X110470000Y-105410000D03*
X110470000Y-107950000D03*
X110470000Y-110490000D03*
X106700000Y-110490000D03*
X106700000Y-107950000D03*
X106700000Y-105410000D03*
X106700000Y-102870000D03*
X96500000Y-102870000D03*
X96500000Y-105410000D03*
X96500000Y-107950000D03*
X96500000Y-110490000D03*
X92730000Y-110490000D03*
X92730000Y-107950000D03*
X92730000Y-105410000D03*
X92730000Y-102870000D03*
X82530000Y-102870000D03*
X82530000Y-105410000D03*
X82530000Y-107950000D03*
X82530000Y-110490000D03*
D16*
X107315000Y-74295000D03*
X109855000Y-74295000D03*
X111125000Y-74295000D03*
X112395000Y-74295000D03*
X113665000Y-74295000D03*
X114935000Y-74295000D03*
X116205000Y-74295000D03*
X116205000Y-80645000D03*
X114935000Y-80645000D03*
X113665000Y-80645000D03*
X112395000Y-80645000D03*
X111125000Y-80645000D03*
X109855000Y-80645000D03*
X108585000Y-80645000D03*
X107315000Y-80645000D03*
X108585000Y-74295000D03*
D11*
X162242500Y-73660000D03*
X160337500Y-73660000D03*
X163512500Y-106680000D03*
X161607500Y-106680000D03*
X162242500Y-71120000D03*
X160337500Y-71120000D03*
X163512500Y-104140000D03*
X161607500Y-104140000D03*
X180022500Y-73660000D03*
X178117500Y-73660000D03*
X181292500Y-106680000D03*
X179387500Y-106680000D03*
X180022500Y-71120000D03*
X178117500Y-71120000D03*
X181292500Y-104140000D03*
X179387500Y-104140000D03*
X197802500Y-73660000D03*
X195897500Y-73660000D03*
X199072500Y-106680000D03*
X197167500Y-106680000D03*
X197802500Y-71120000D03*
X195897500Y-71120000D03*
X199072500Y-104140000D03*
X197167500Y-104140000D03*
X215582500Y-77470000D03*
X213677500Y-77470000D03*
X216852500Y-106680000D03*
X214947500Y-106680000D03*
X215582500Y-74930000D03*
X213677500Y-74930000D03*
X216852500Y-104140000D03*
X214947500Y-104140000D03*
D12*
X104140000Y-78422500D03*
X104140000Y-76517500D03*
D11*
X213677500Y-69850000D03*
X215582500Y-69850000D03*
X213677500Y-72390000D03*
X215582500Y-72390000D03*
D17*
X132311140Y-94620080D03*
D18*
X130810000Y-94869000D03*
D17*
X129308860Y-94620080D03*
D19*
X130810000Y-97269300D03*
D17*
X118341140Y-94620080D03*
D18*
X116840000Y-94869000D03*
D17*
X115338860Y-94620080D03*
D19*
X116840000Y-97269300D03*
D17*
X104371140Y-94620080D03*
D18*
X102870000Y-94869000D03*
D17*
X101368860Y-94620080D03*
D19*
X102870000Y-97269300D03*
D17*
X90401140Y-94620080D03*
D18*
X88900000Y-94869000D03*
D17*
X87398860Y-94620080D03*
D19*
X88900000Y-97269300D03*
D20*
X163195000Y-94996000D03*
X161925000Y-94996000D03*
X160655000Y-94996000D03*
X159385000Y-94996000D03*
X159385000Y-100584000D03*
X160655000Y-100584000D03*
X161925000Y-100584000D03*
X163195000Y-100584000D03*
X180975000Y-94996000D03*
X179705000Y-94996000D03*
X178435000Y-94996000D03*
X177165000Y-94996000D03*
X177165000Y-100584000D03*
X178435000Y-100584000D03*
X179705000Y-100584000D03*
X180975000Y-100584000D03*
X198755000Y-94996000D03*
X197485000Y-94996000D03*
X196215000Y-94996000D03*
X194945000Y-94996000D03*
X194945000Y-100584000D03*
X196215000Y-100584000D03*
X197485000Y-100584000D03*
X198755000Y-100584000D03*
X216535000Y-94996000D03*
X215265000Y-94996000D03*
X213995000Y-94996000D03*
X212725000Y-94996000D03*
X212725000Y-100584000D03*
X213995000Y-100584000D03*
X215265000Y-100584000D03*
X216535000Y-100584000D03*
D21*
X79050000Y-68870000D03*
X86050000Y-68870000D03*
X79050000Y-73370000D03*
X86050000Y-73370000D03*
M02*
