G04 (created by PCBNEW (2013-07-07 BZR 4022)-stable) date 15/07/2015 17:12:13*
%MOIN*%
G04 Gerber Fmt 3.4, Leading zero omitted, Abs format*
%FSLAX34Y34*%
G01*
G70*
G90*
G04 APERTURE LIST*
%ADD10C,0.00590551*%
%ADD11C,0.0787402*%
%ADD12R,0.025X0.05*%
%ADD13R,0.055X0.035*%
%ADD14R,0.035X0.055*%
%ADD15C,0.137795*%
%ADD16R,0.0708661X0.0708661*%
%ADD17C,0.0708661*%
%ADD18R,0.0276X0.063*%
%ADD19R,0.0276X0.0827*%
%ADD20R,0.0787X0.1083*%
%ADD21O,0.0607087X0.1*%
%ADD22O,0.06X0.1*%
%ADD23C,0.0593*%
%ADD24R,0.0708661X0.0472441*%
%ADD25R,0.02X0.045*%
%ADD26R,0.1063X0.1004*%
%ADD27R,0.1496X0.1004*%
%ADD28R,0.102362X0.0511811*%
G04 APERTURE END LIST*
G54D10*
G54D11*
X85750Y-27500D03*
G54D12*
X78250Y-37400D03*
X77750Y-37400D03*
X77250Y-37400D03*
X76750Y-37400D03*
X76750Y-39600D03*
X77250Y-39600D03*
X77750Y-39600D03*
X78250Y-39600D03*
X71250Y-37400D03*
X70750Y-37400D03*
X70250Y-37400D03*
X69750Y-37400D03*
X69750Y-39600D03*
X70250Y-39600D03*
X70750Y-39600D03*
X71250Y-39600D03*
X64250Y-37400D03*
X63750Y-37400D03*
X63250Y-37400D03*
X62750Y-37400D03*
X62750Y-39600D03*
X63250Y-39600D03*
X63750Y-39600D03*
X64250Y-39600D03*
X85250Y-37400D03*
X84750Y-37400D03*
X84250Y-37400D03*
X83750Y-37400D03*
X83750Y-39600D03*
X84250Y-39600D03*
X84750Y-39600D03*
X85250Y-39600D03*
G54D13*
X79000Y-39875D03*
X79000Y-39125D03*
X39000Y-38375D03*
X39000Y-37625D03*
X72000Y-39875D03*
X72000Y-39125D03*
X65000Y-39875D03*
X65000Y-39125D03*
G54D14*
X85375Y-41000D03*
X84625Y-41000D03*
X85375Y-42000D03*
X84625Y-42000D03*
X78375Y-41000D03*
X77625Y-41000D03*
X78375Y-42000D03*
X77625Y-42000D03*
X71375Y-41000D03*
X70625Y-41000D03*
X71375Y-42000D03*
X70625Y-42000D03*
X64375Y-41000D03*
X63625Y-41000D03*
X64375Y-42000D03*
X63625Y-42000D03*
G54D13*
X86000Y-39875D03*
X86000Y-39125D03*
X50000Y-38375D03*
X50000Y-37625D03*
G54D14*
X51875Y-36000D03*
X51125Y-36000D03*
G54D13*
X44500Y-38375D03*
X44500Y-37625D03*
G54D14*
X46375Y-36000D03*
X45625Y-36000D03*
X40875Y-36000D03*
X40125Y-36000D03*
G54D13*
X33500Y-38375D03*
X33500Y-37625D03*
G54D14*
X35375Y-36000D03*
X34625Y-36000D03*
G54D13*
X41000Y-30875D03*
X41000Y-30125D03*
G54D14*
X60875Y-40250D03*
X60125Y-40250D03*
G54D13*
X86000Y-37125D03*
X86000Y-37875D03*
X79000Y-37125D03*
X79000Y-37875D03*
X72000Y-37125D03*
X72000Y-37875D03*
X65000Y-37125D03*
X65000Y-37875D03*
G54D15*
X63000Y-45500D03*
X59000Y-45500D03*
G54D16*
X61000Y-43500D03*
G54D17*
X62000Y-43500D03*
G54D15*
X70000Y-45500D03*
X66000Y-45500D03*
G54D16*
X68000Y-43500D03*
G54D17*
X69000Y-43500D03*
G54D15*
X77000Y-45500D03*
X73000Y-45500D03*
G54D16*
X75000Y-43500D03*
G54D17*
X76000Y-43500D03*
G54D15*
X84000Y-45500D03*
X80000Y-45500D03*
G54D16*
X82000Y-43500D03*
G54D17*
X83000Y-43500D03*
G54D14*
X67875Y-40250D03*
X67125Y-40250D03*
X74875Y-40250D03*
X74125Y-40250D03*
X81875Y-40250D03*
X81125Y-40250D03*
X63875Y-28000D03*
X63125Y-28000D03*
X63875Y-29000D03*
X63125Y-29000D03*
X70875Y-28000D03*
X70125Y-28000D03*
X70875Y-29000D03*
X70125Y-29000D03*
X77875Y-29000D03*
X77125Y-29000D03*
X77875Y-28000D03*
X77125Y-28000D03*
X84875Y-30500D03*
X84125Y-30500D03*
X84875Y-29500D03*
X84125Y-29500D03*
X84125Y-27500D03*
X84875Y-27500D03*
X84125Y-28500D03*
X84875Y-28500D03*
G54D18*
X52091Y-37252D03*
G54D19*
X51500Y-37350D03*
G54D18*
X50909Y-37252D03*
G54D20*
X51500Y-38295D03*
G54D18*
X41091Y-37252D03*
G54D19*
X40500Y-37350D03*
G54D18*
X39909Y-37252D03*
G54D20*
X40500Y-38295D03*
G54D18*
X35591Y-37252D03*
G54D19*
X35000Y-37350D03*
G54D18*
X34409Y-37252D03*
G54D20*
X35000Y-38295D03*
G54D21*
X60000Y-34500D03*
G54D22*
X61000Y-34500D03*
X62000Y-34500D03*
X60000Y-41500D03*
X61000Y-41500D03*
X62000Y-41500D03*
G54D21*
X67000Y-34500D03*
G54D22*
X68000Y-34500D03*
X69000Y-34500D03*
X67000Y-41500D03*
X68000Y-41500D03*
X69000Y-41500D03*
G54D21*
X74000Y-34500D03*
G54D22*
X75000Y-34500D03*
X76000Y-34500D03*
X74000Y-41500D03*
X75000Y-41500D03*
X76000Y-41500D03*
G54D21*
X81000Y-34500D03*
G54D22*
X82000Y-34500D03*
X83000Y-34500D03*
X81000Y-41500D03*
X82000Y-41500D03*
X83000Y-41500D03*
G54D18*
X46591Y-37252D03*
G54D19*
X46000Y-37350D03*
G54D18*
X45409Y-37252D03*
G54D20*
X46000Y-38295D03*
G54D22*
X55000Y-46500D03*
X54000Y-46500D03*
X53000Y-46500D03*
X50000Y-46500D03*
X51000Y-46500D03*
X52000Y-46500D03*
X48000Y-46500D03*
X47000Y-46500D03*
X46000Y-46500D03*
X44000Y-46500D03*
X43000Y-46500D03*
X55000Y-27500D03*
X54000Y-27500D03*
X53000Y-27500D03*
X52000Y-27500D03*
X51000Y-27500D03*
X50000Y-27500D03*
X49000Y-27500D03*
X48000Y-27500D03*
X46400Y-27500D03*
X45400Y-27500D03*
X44400Y-27500D03*
X43400Y-27500D03*
X42400Y-27500D03*
X41400Y-27500D03*
X40400Y-27500D03*
X39400Y-27500D03*
X45000Y-46500D03*
X42000Y-46500D03*
X41000Y-46500D03*
X38500Y-27500D03*
X37500Y-27500D03*
G54D23*
X49500Y-30500D03*
X50500Y-30500D03*
X51500Y-30500D03*
X60500Y-27500D03*
X60500Y-28500D03*
X60500Y-29500D03*
X67500Y-27500D03*
X67500Y-28500D03*
X67500Y-29500D03*
X74500Y-27500D03*
X74500Y-28500D03*
X74500Y-29500D03*
X81500Y-27500D03*
X81500Y-28500D03*
X81500Y-29500D03*
X61500Y-27500D03*
X61500Y-28500D03*
X61500Y-29500D03*
X68500Y-27500D03*
X68500Y-28500D03*
X68500Y-29500D03*
X75500Y-27500D03*
X75500Y-28500D03*
X75500Y-29500D03*
X82500Y-27500D03*
X82500Y-28500D03*
X82500Y-29500D03*
G54D24*
X53007Y-43500D03*
X53007Y-42500D03*
X53007Y-41500D03*
X53007Y-40500D03*
X48992Y-40500D03*
X48992Y-41500D03*
X48992Y-42500D03*
X48992Y-43500D03*
X47507Y-43500D03*
X47507Y-42500D03*
X47507Y-41500D03*
X47507Y-40500D03*
X43492Y-40500D03*
X43492Y-41500D03*
X43492Y-42500D03*
X43492Y-43500D03*
X42007Y-43500D03*
X42007Y-42500D03*
X42007Y-41500D03*
X42007Y-40500D03*
X37992Y-40500D03*
X37992Y-41500D03*
X37992Y-42500D03*
X37992Y-43500D03*
X36507Y-43500D03*
X36507Y-42500D03*
X36507Y-41500D03*
X36507Y-40500D03*
X32492Y-40500D03*
X32492Y-41500D03*
X32492Y-42500D03*
X32492Y-43500D03*
G54D25*
X42250Y-29250D03*
X43250Y-29250D03*
X43750Y-29250D03*
X44250Y-29250D03*
X44750Y-29250D03*
X45250Y-29250D03*
X45750Y-29250D03*
X45750Y-31750D03*
X45250Y-31750D03*
X44750Y-31750D03*
X44250Y-31750D03*
X43750Y-31750D03*
X43250Y-31750D03*
X42750Y-31750D03*
X42250Y-31750D03*
X42750Y-29250D03*
G54D26*
X55500Y-39819D03*
G54D27*
X55500Y-42181D03*
G54D11*
X32000Y-46000D03*
G54D28*
X31122Y-27114D03*
X33877Y-27114D03*
X31122Y-28885D03*
X33877Y-28885D03*
M02*
