M48
;DRILL file {Pcbnew (2013-07-07 BZR 4022)-stable} date 15/07/2015 17:32:23
;FORMAT={-:-/ absolute / metric / decimal}
FMAT,2
METRIC,TZ
T1C0.635
T2C0.890
T3C0.998
T4C1.016
T5C2.010
T6C3.175
%
G90
G05
M71
T1
X81.407Y-69.85
X87.376Y-113.665
X90.932Y-77.089
X92.71Y-92.71
X93.853Y-80.01
X94.488Y-112.141
X94.488Y-115.824
X97.663Y-80.01
X102.235Y-74.93
X102.489Y-80.391
X104.14Y-80.01
X105.791Y-81.28
X106.68Y-92.71
X108.585Y-77.089
X108.585Y-110.49
X111.125Y-82.169
X112.395Y-75.946
X113.665Y-75.946
X113.665Y-79.248
X116.84Y-110.49
X117.475Y-80.645
X120.65Y-92.71
X121.031Y-82.169
X122.555Y-110.49
X136.525Y-110.49
X140.97Y-92.71
X147.574Y-72.898
X149.352Y-72.898
X152.527Y-73.66
X159.512Y-91.313
X160.909Y-91.313
X161.544Y-76.2
X162.306Y-91.313
X163.703Y-91.313
X164.465Y-77.343
X165.1Y-91.313
X165.608Y-76.327
X166.116Y-80.264
X166.751Y-78.994
X167.767Y-77.724
X175.895Y-76.073
X177.292Y-91.313
X178.689Y-91.313
X180.086Y-91.313
X181.483Y-91.313
X182.88Y-91.313
X183.134Y-77.597
X183.769Y-80.264
X187.706Y-78.994
X195.072Y-91.313
X196.469Y-91.313
X197.866Y-91.313
X199.263Y-91.313
X200.66Y-91.313
X201.549Y-80.264
X202.311Y-72.644
X205.359Y-73.66
X212.09Y-91.313
X213.487Y-91.313
X214.884Y-91.313
X215.011Y-80.264
X216.281Y-91.313
X217.678Y-91.313
T2
X154.94Y-110.49
X157.48Y-110.49
X172.72Y-110.49
X175.26Y-110.49
X190.5Y-110.49
X193.04Y-110.49
X208.28Y-110.49
X210.82Y-110.49
T3
X125.73Y-77.47
X128.27Y-77.47
X130.81Y-77.47
X153.67Y-69.85
X153.67Y-72.39
X153.67Y-74.93
X156.21Y-69.85
X156.21Y-72.39
X156.21Y-74.93
X171.45Y-69.85
X171.45Y-72.39
X171.45Y-74.93
X173.99Y-69.85
X173.99Y-72.39
X173.99Y-74.93
X189.23Y-69.85
X189.23Y-72.39
X189.23Y-74.93
X191.77Y-69.85
X191.77Y-72.39
X191.77Y-74.93
X207.01Y-69.85
X207.01Y-72.39
X207.01Y-74.93
X209.55Y-69.85
X209.55Y-72.39
X209.55Y-74.93
T4
X95.25Y-69.85
X97.79Y-69.85
X100.076Y-69.85
X102.616Y-69.85
X104.14Y-118.11
X105.156Y-69.85
X106.68Y-118.11
X107.696Y-69.85
X109.22Y-118.11
X110.236Y-69.85
X111.76Y-118.11
X112.776Y-69.85
X114.3Y-118.11
X115.316Y-69.85
X116.84Y-118.11
X117.856Y-69.85
X119.38Y-118.11
X121.92Y-69.85
X121.92Y-118.11
X124.46Y-69.85
X127.Y-69.85
X127.Y-118.11
X129.54Y-69.85
X129.54Y-118.11
X132.08Y-69.85
X132.08Y-118.11
X134.62Y-69.85
X134.62Y-118.11
X137.16Y-69.85
X137.16Y-118.11
X139.7Y-69.85
X139.7Y-118.11
X152.4Y-87.63
X152.4Y-105.41
X154.94Y-87.63
X154.94Y-105.41
X157.48Y-87.63
X157.48Y-105.41
X170.18Y-87.63
X170.18Y-105.41
X172.72Y-87.63
X172.72Y-105.41
X175.26Y-87.63
X175.26Y-105.41
X187.96Y-87.63
X187.96Y-105.41
X190.5Y-87.63
X190.5Y-105.41
X193.04Y-87.63
X193.04Y-105.41
X205.74Y-87.63
X205.74Y-105.41
X208.28Y-87.63
X208.28Y-105.41
X210.82Y-87.63
X210.82Y-105.41
T5
X149.86Y-115.57
X160.02Y-115.57
X167.64Y-115.57
X177.8Y-115.57
X185.42Y-115.57
X195.58Y-115.57
X203.2Y-115.57
X213.36Y-115.57
T6
X90.17Y-118.11
X91.44Y-69.85
X142.24Y-85.09
X142.24Y-113.03
X219.71Y-85.09
X219.71Y-113.03
T0
M30
