G04 (created by PCBNEW (2013-07-07 BZR 4022)-stable) date 15/07/2015 17:12:13*
%MOIN*%
G04 Gerber Fmt 3.4, Leading zero omitted, Abs format*
%FSLAX34Y34*%
G01*
G70*
G90*
G04 APERTURE LIST*
%ADD10C,0.00590551*%
%ADD11C,0.137795*%
%ADD12R,0.0708661X0.0708661*%
%ADD13C,0.0708661*%
%ADD14O,0.0607087X0.1*%
%ADD15O,0.06X0.1*%
%ADD16C,0.0593*%
G04 APERTURE END LIST*
G54D10*
G54D11*
X63000Y-45500D03*
X59000Y-45500D03*
G54D12*
X61000Y-43500D03*
G54D13*
X62000Y-43500D03*
G54D11*
X70000Y-45500D03*
X66000Y-45500D03*
G54D12*
X68000Y-43500D03*
G54D13*
X69000Y-43500D03*
G54D11*
X77000Y-45500D03*
X73000Y-45500D03*
G54D12*
X75000Y-43500D03*
G54D13*
X76000Y-43500D03*
G54D11*
X84000Y-45500D03*
X80000Y-45500D03*
G54D12*
X82000Y-43500D03*
G54D13*
X83000Y-43500D03*
G54D14*
X60000Y-34500D03*
G54D15*
X61000Y-34500D03*
X62000Y-34500D03*
X60000Y-41500D03*
X61000Y-41500D03*
X62000Y-41500D03*
G54D14*
X67000Y-34500D03*
G54D15*
X68000Y-34500D03*
X69000Y-34500D03*
X67000Y-41500D03*
X68000Y-41500D03*
X69000Y-41500D03*
G54D14*
X74000Y-34500D03*
G54D15*
X75000Y-34500D03*
X76000Y-34500D03*
X74000Y-41500D03*
X75000Y-41500D03*
X76000Y-41500D03*
G54D14*
X81000Y-34500D03*
G54D15*
X82000Y-34500D03*
X83000Y-34500D03*
X81000Y-41500D03*
X82000Y-41500D03*
X83000Y-41500D03*
X55000Y-46500D03*
X54000Y-46500D03*
X53000Y-46500D03*
X50000Y-46500D03*
X51000Y-46500D03*
X52000Y-46500D03*
X48000Y-46500D03*
X47000Y-46500D03*
X46000Y-46500D03*
X44000Y-46500D03*
X43000Y-46500D03*
X55000Y-27500D03*
X54000Y-27500D03*
X53000Y-27500D03*
X52000Y-27500D03*
X51000Y-27500D03*
X50000Y-27500D03*
X49000Y-27500D03*
X48000Y-27500D03*
X46400Y-27500D03*
X45400Y-27500D03*
X44400Y-27500D03*
X43400Y-27500D03*
X42400Y-27500D03*
X41400Y-27500D03*
X40400Y-27500D03*
X39400Y-27500D03*
X45000Y-46500D03*
X42000Y-46500D03*
X41000Y-46500D03*
X38500Y-27500D03*
X37500Y-27500D03*
G54D16*
X49500Y-30500D03*
X50500Y-30500D03*
X51500Y-30500D03*
X60500Y-27500D03*
X60500Y-28500D03*
X60500Y-29500D03*
X67500Y-27500D03*
X67500Y-28500D03*
X67500Y-29500D03*
X74500Y-27500D03*
X74500Y-28500D03*
X74500Y-29500D03*
X81500Y-27500D03*
X81500Y-28500D03*
X81500Y-29500D03*
X61500Y-27500D03*
X61500Y-28500D03*
X61500Y-29500D03*
X68500Y-27500D03*
X68500Y-28500D03*
X68500Y-29500D03*
X75500Y-27500D03*
X75500Y-28500D03*
X75500Y-29500D03*
X82500Y-27500D03*
X82500Y-28500D03*
X82500Y-29500D03*
M02*
